<svg width="160" height="160" viewBox="0 0 160 160" fill="none" xmlns="http://www.w3.org/2000/svg">
<circle cx="80" cy="80" r="79.5" stroke="#323131"/>
<path fill-rule="evenodd" clip-rule="evenodd" d="M79.4958 111.402C67.4973 111.402 57.251 109.535 57.251 102.057C57.251 94.5795 67.4323 87.6767 79.4958 87.6767C91.4942 87.6767 101.741 94.5126 101.741 101.99C101.741 109.465 91.5592 111.402 79.4958 111.402Z" stroke="#323131" stroke-width="1.5" stroke-linecap="round" stroke-linejoin="round"/>
<path fill-rule="evenodd" clip-rule="evenodd" d="M79.4727 77.3148C87.3465 77.3148 93.7284 70.933 93.7284 63.0591C93.7284 55.1852 87.3465 48.8005 79.4727 48.8005C71.5988 48.8005 65.214 55.1852 65.214 63.0591C65.1874 70.9064 71.5249 77.2882 79.3722 77.3148C79.4077 77.3148 79.4402 77.3148 79.4727 77.3148Z" stroke="#323131" stroke-width="1.5" stroke-linecap="round" stroke-linejoin="round"/>
</svg>
