<svg width="20" height="20" viewBox="0 0 40 40" fill="none" xmlns="http://www.w3.org/2000/svg">
<circle cx="20" cy="20" r="19.5" stroke="#B6B6B6"/>
<path fill-rule="evenodd" clip-rule="evenodd" d="M18.9615 10.0343C19.3524 10.0343 19.6696 10.351 19.6696 10.7413C19.6696 11.1315 19.3524 11.4483 18.9615 11.4483H15.4315C12.9919 11.4483 11.4162 13.1167 11.4162 15.6986V23.5357C11.4162 26.1176 12.9919 27.786 15.4315 27.786H23.7623C26.2019 27.786 27.7785 26.1176 27.7785 23.5357V19.7388C27.7785 19.3485 28.0958 19.0318 28.4866 19.0318C28.8775 19.0318 29.1947 19.3485 29.1947 19.7388V23.5357C29.1947 26.9235 27.011 29.2 23.7623 29.2H15.4315C12.1828 29.2 10 26.9235 10 23.5357V15.6986C10 12.3108 12.1828 10.0343 15.4315 10.0343H18.9615ZM27.1843 10.8625L28.3333 12.0097C28.8932 12.5677 29.2009 13.3096 29.2 14.0995C29.2 14.8895 28.8922 15.6304 28.3333 16.1875L21.244 23.2657C20.7238 23.7851 20.0308 24.0717 19.2944 24.0717H15.7578C15.567 24.0717 15.3839 23.9944 15.2508 23.8577C15.1176 23.722 15.0449 23.5381 15.0497 23.3468L15.1384 19.7846C15.1564 19.0757 15.4424 18.4093 15.9447 17.9068H15.9456L23.001 10.8625C24.1547 9.7125 26.0306 9.7125 27.1843 10.8625ZM22.4198 13.4416L16.9464 18.907C16.7019 19.1511 16.5631 19.4754 16.5546 19.8194L16.4838 22.6577H19.2944C19.6532 22.6577 19.9893 22.5192 20.2432 22.2656L25.7497 16.7662L22.4198 13.4416ZM24.0017 11.8627L23.4205 12.4414L26.7504 15.7671L27.3325 15.1873C27.6233 14.897 27.7838 14.5105 27.7838 14.0995C27.7838 13.6876 27.6233 13.3002 27.3325 13.0098L26.1836 11.8627C25.5822 11.2641 24.6041 11.2641 24.0017 11.8627Z" fill="#B6B6B6"/>
</svg>
