<svg width="548" height="591" viewBox="0 0 548 591" fill="none" xmlns="http://www.w3.org/2000/svg">
<path d="M156.29 212.142L159.172 223.822L195.315 230.742V246.16C195.315 246.16 147.466 250.437 142.811 247.987C138.156 245.537 130.994 218.84 130.994 218.84L156.29 212.142Z" fill="#FFBE9D"/>
<path d="M158.451 224.418C158.562 224.611 156.429 225.802 154.462 228.002C152.494 230.203 151.455 232.389 151.248 232.306C151.757 230.525 152.673 228.886 153.923 227.517C155.172 226.149 156.722 225.088 158.451 224.418Z" fill="#EB996E"/>
<path d="M156.29 212.142L159.172 223.822L195.315 230.742V246.16C195.315 246.16 147.466 250.437 142.811 247.987C138.156 245.537 130.994 218.84 130.994 218.84L156.29 212.142Z" fill="#FFBE9D"/>
<path d="M104.77 136.284L94.6707 134.098L58.6105 137.06L50.9219 140.367L83.8374 178.856L104.77 136.284Z" fill="#FFBE9D"/>
<path d="M118.055 95.9824C116.891 87.8261 115.732 79.6743 114.578 71.5271L88.5059 67.1122L82.5212 133.184L119.759 135.952C121.084 133.894 121.737 131.477 121.629 129.032C121.186 119.746 118.554 99.5116 118.055 95.9824Z" fill="#263238"/>
<path d="M45.81 79.0007C46.3472 73.5732 47.9632 68.3073 50.5632 63.5116C53.1632 58.7158 56.695 54.4866 60.9516 51.0716C68.6402 45.1481 77.354 43.5426 87.0513 44.027C91.8169 44.2762 97.1919 46.5182 101.334 48.8987C107.014 52.1788 109.369 58.739 112.07 64.704C117.487 76.6479 116.656 92.7577 112.888 97.2003L44.8402 137.336C36.0572 132.672 37.207 117.102 40.2132 107.636C42.9245 98.2752 44.7974 88.6925 45.81 79.0007Z" fill="#263238"/>
<path d="M62.1844 60.1091L93.6038 51.127C103.703 49.743 110.837 62.0052 111.793 72.1499C112.86 83.4157 113.705 97.228 112.638 105.684C110.477 122.721 97.5381 125.282 97.5381 125.282C97.5381 125.282 97.5381 125.531 97.5381 130.569L97.7736 137.89C93.9363 151.73 67.0746 149.46 64.2209 139.675L57.0171 66.3233C56.9379 64.828 57.4259 63.3578 58.3836 62.2061C59.3414 61.0543 60.6986 60.3055 62.1844 60.1091Z" fill="#FFBE9D"/>
<path d="M107.859 88.578C107.882 89.1453 107.681 89.699 107.301 90.1206C106.92 90.5422 106.39 90.7982 105.822 90.8339C105.547 90.8665 105.267 90.8431 105.001 90.7654C104.735 90.6876 104.487 90.5569 104.272 90.3812C104.057 90.2055 103.88 89.9883 103.752 89.7427C103.623 89.4971 103.545 89.2281 103.523 88.9517C103.5 88.3852 103.698 87.8319 104.075 87.4085C104.452 86.985 104.98 86.7245 105.545 86.6819C105.822 86.6514 106.103 86.6765 106.37 86.7557C106.637 86.835 106.886 86.9668 107.102 87.1434C107.317 87.3201 107.495 87.538 107.625 87.7844C107.755 88.0307 107.835 88.3006 107.859 88.578Z" fill="#263238"/>
<path d="M108.815 81.9763C108.552 82.267 106.875 81.1044 104.534 81.1736C102.193 81.2428 100.517 82.4745 100.253 82.1977C99.9902 81.9209 100.378 81.5611 101.112 80.9937C102.099 80.2584 103.29 79.8474 104.52 79.8173C105.741 79.7835 106.943 80.1319 107.956 80.8138C108.69 81.312 108.953 81.8379 108.815 81.9763Z" fill="#263238"/>
<path d="M85.9985 88.3427C86.0217 88.9092 85.8237 89.4625 85.4463 89.886C85.069 90.3094 84.5418 90.5699 83.9759 90.6125C83.6995 90.643 83.4198 90.6179 83.1534 90.5385C82.887 90.459 82.6392 90.327 82.4247 90.1502C82.2103 89.9734 82.0336 89.7554 81.905 89.5091C81.7764 89.2628 81.6986 88.9933 81.6762 88.7164C81.6496 88.1505 81.8468 87.5968 82.2252 87.1747C82.6036 86.7527 83.1328 86.4962 83.6988 86.4605C83.9741 86.4299 84.2527 86.4546 84.5183 86.5332C84.7839 86.6117 85.0311 86.7426 85.2454 86.9179C85.4596 87.0933 85.6366 87.3097 85.766 87.5543C85.8953 87.799 85.9744 88.0671 85.9985 88.3427Z" fill="#263238"/>
<path d="M85.9568 82.0594C85.6936 82.35 84.0035 81.1874 81.6623 81.2566C79.321 81.3258 77.6448 82.6406 77.3816 82.2808C77.1184 81.9209 77.5063 81.6442 78.2405 81.0767C79.2314 80.3396 80.4272 79.9285 81.6623 79.9003C82.8792 79.8658 84.0763 80.2144 85.084 80.8968C85.8183 81.4227 86.0815 81.921 85.9568 82.0594Z" fill="#263238"/>
<path d="M94.823 98.4459C96.0418 98.0265 97.3071 97.757 98.5911 97.6432C99.1868 97.574 99.7548 97.4356 99.8379 97.0204C99.8749 96.4029 99.7201 95.789 99.3946 95.2627L97.4828 90.7786C94.823 84.3707 92.8836 79.1115 93.1329 79.0008C93.3823 78.89 95.7651 83.997 98.411 90.3911C99.0622 91.9688 99.6717 93.4774 100.254 94.9167C100.656 95.626 100.793 96.4548 100.641 97.2557C100.558 97.4669 100.43 97.657 100.264 97.8126C100.099 97.9681 99.9015 98.0851 99.6856 98.1553C99.3562 98.2501 99.0167 98.3059 98.6743 98.3214C97.4017 98.5335 96.1066 98.5754 94.823 98.4459Z" fill="#263238"/>
<path d="M97.5381 125.282C89.5367 126.177 81.4535 124.587 74.3892 120.728C74.3892 120.728 80.637 132.243 97.5658 130.126L97.5381 125.282Z" fill="#EB996E"/>
<path d="M87.1343 103.082C87.4022 102.642 87.7753 102.275 88.2202 102.014C88.6651 101.753 89.1678 101.607 89.6833 101.588C90.4057 101.51 91.1355 101.629 91.7961 101.931C92.4567 102.233 93.0237 102.707 93.4376 103.304C93.7372 103.859 93.8164 104.506 93.6592 105.117C93.5346 105.421 93.6592 105.269 93.396 105.49C92.6188 106.342 91.6433 106.988 90.5561 107.373C89.9677 107.54 89.3425 107.527 88.7619 107.334C88.1812 107.141 87.6721 106.779 87.3006 106.293C86.9802 105.825 86.7952 105.278 86.7658 104.711C86.7365 104.145 86.864 103.581 87.1343 103.082Z" fill="#EB996E"/>
<path d="M87.5638 100.384C87.9378 100.384 88.0348 102.889 90.3345 104.605C92.6341 106.321 95.2662 105.989 95.3078 106.307C95.3078 106.459 94.7121 106.819 93.5761 106.888C92.0837 106.968 90.6111 106.517 89.4201 105.615C88.2673 104.759 87.4924 103.488 87.259 102.072C87.1205 101.006 87.3837 100.37 87.5638 100.384Z" fill="#263238"/>
<path d="M86.788 74.6688C86.6079 75.3193 84.2529 75.2362 81.5515 75.8037C78.8501 76.3711 76.689 77.3261 76.2734 76.7863C76.0933 76.5234 76.4258 75.9006 77.257 75.2086C78.3759 74.3368 79.6865 73.7437 81.0805 73.4786C82.4548 73.1832 83.8799 73.2212 85.2365 73.5893C86.2893 73.9076 86.8573 74.392 86.788 74.6688Z" fill="#263238"/>
<path d="M108.704 76.8417C108.164 77.2984 106.474 76.4818 104.326 76.122C102.179 75.7622 100.323 75.8729 99.9903 75.2639C99.8517 74.9594 100.212 74.4889 101.085 74.1014C102.263 73.6686 103.535 73.5584 104.77 73.7823C106.005 74.0062 107.158 74.556 108.108 75.3746C108.773 76.039 108.939 76.6202 108.704 76.8417Z" fill="#263238"/>
<path d="M93.6317 49.9505C94.582 56.8079 93.6234 63.7942 90.861 70.1431C90.1584 71.9409 89.0873 73.572 87.7163 74.9318C87.0221 75.6023 86.1815 76.1027 85.2608 76.3933C84.34 76.6839 83.3643 76.7569 82.4105 76.6064C85.316 72.8268 86.9675 68.235 87.1344 63.4722C85.098 68.2747 82.9784 73.1602 79.5705 77.1046C76.1626 81.049 71.0784 83.9278 65.8696 83.4295L66.2436 79.9557C65.599 82.5044 64.1399 84.7736 62.0876 86.419C61.0446 87.2108 59.7766 87.651 58.4668 87.6758C57.157 87.7007 55.8732 87.309 54.8007 86.5574C56.5878 78.0873 51.4205 68.856 54.7176 60.8426C56.9896 55.3066 62.7803 51.985 68.571 50.1858C76.6883 47.6791 85.3252 47.364 93.604 49.2724" fill="#263238"/>
<path d="M92.939 50.089C92.939 50.2135 92.939 50.3381 93.0082 50.4626L92.939 50.089Z" fill="#263238"/>
<path d="M93.0082 50.4626L94.0472 50.0336C97.2474 48.4005 99.3531 46.5321 104.313 50.947C107.187 53.7053 109.497 56.9957 111.115 60.635C112.832 63.8911 114.087 67.3709 114.841 70.9735C115.573 75.2721 115.681 79.6539 115.16 83.9831C112.278 82.0732 110.824 78.6547 109.909 75.3331C108.995 72.0115 108.524 68.5238 106.792 65.5067C107.429 68.3203 107.593 71.2202 107.277 74.0875C107.215 74.8803 106.882 75.6277 106.335 76.205C106.055 76.4822 105.677 76.6378 105.282 76.6378C104.888 76.6378 104.51 76.4822 104.229 76.205C105.192 72.873 105.192 69.337 104.229 66.005C103.284 62.6929 102.008 59.4843 100.42 56.4277C101.17 62.1695 100.931 67.9972 99.7132 73.6585C99.6122 74.4875 99.2757 75.2703 98.7435 75.9144C98.2504 76.2936 97.6766 76.5546 97.0665 76.6769C96.4563 76.7993 95.8262 76.7799 95.2248 76.6202C94.0233 76.2971 92.7656 76.2405 91.5398 76.4541C94.3809 68.0839 94.8885 59.0991 93.0082 50.4626Z" fill="#263238"/>
<path d="M70.8151 116.895C68.1968 107.027 69.9007 81.7134 66.5759 72.053L53.4846 73.7692L44.8401 137.281L75.1373 138.444L70.8151 116.895Z" fill="#263238"/>
<path d="M113.65 530.531L112.264 556.024C112.264 556.024 137.754 564.107 137.962 568.84L88.3813 569.85L88.8524 530.046L113.65 530.531Z" fill="#455A64"/>
<g opacity="0.6">
<path opacity="0.6" d="M97.0118 553.616C96.5396 553.763 96.1379 554.079 95.8826 554.502C95.6273 554.925 95.5362 555.427 95.6265 555.913C95.7599 556.385 96.0664 556.79 96.4848 557.046C96.9032 557.303 97.403 557.392 97.8846 557.297C98.3897 557.149 98.8227 556.82 99.1011 556.373C99.3795 555.927 99.4839 555.394 99.3946 554.875C99.2211 554.383 98.8621 553.977 98.3939 553.744C97.9257 553.511 97.3852 553.47 96.8871 553.63" fill="white"/>
</g>
<g opacity="0.6">
<path opacity="0.6" d="M88.4229 569.864V565.864L136.328 566.542C136.837 566.797 137.275 567.174 137.602 567.641C137.929 568.107 138.133 568.648 138.198 569.213L88.4229 569.864Z" fill="white"/>
</g>
<path d="M113.109 555.789C113.109 556.038 111.89 556.121 110.685 556.882C109.48 557.643 108.829 558.64 108.607 558.543C108.385 558.446 108.773 557.048 110.242 556.162C111.71 555.277 113.165 555.567 113.109 555.789Z" fill="#263238"/>
<path d="M118.277 558.031C118.277 558.266 117.265 558.654 116.434 559.664C115.603 560.674 115.34 561.754 115.049 561.74C114.758 561.726 114.675 560.356 115.755 559.124C116.836 557.892 118.277 557.796 118.277 558.031Z" fill="#263238"/>
<path d="M121.117 564.328C120.895 564.328 120.59 563.152 121.227 561.837C121.865 560.522 123.014 560.024 123.111 560.231C123.208 560.439 122.502 561.131 121.989 562.211C121.477 563.29 121.366 564.328 121.117 564.328Z" fill="#263238"/>
<path d="M112.777 549.948C112.666 550.17 111.558 549.81 110.2 549.879C108.843 549.948 107.748 550.364 107.624 550.156C107.499 549.948 108.552 549.104 110.159 549.035C111.766 548.966 112.902 549.755 112.777 549.948Z" fill="#263238"/>
<path d="M112.957 544.8C112.141 545.024 111.28 545.024 110.463 544.8C109.045 544.511 107.692 543.962 106.474 543.18C106.199 543.022 105.951 542.821 105.739 542.585C105.58 542.413 105.484 542.192 105.466 541.959C105.449 541.725 105.511 541.492 105.642 541.298C105.769 541.134 105.93 541.001 106.115 540.908C106.299 540.814 106.502 540.763 106.709 540.759C107.023 540.762 107.336 540.809 107.637 540.897C108.165 541.042 108.68 541.232 109.175 541.464C110.009 541.853 110.776 542.371 111.447 543.001C112.569 544.08 112.957 544.993 112.832 545.035C112.708 545.077 112.167 544.343 111.018 543.443C110.34 542.928 109.6 542.501 108.815 542.17C108.367 541.976 107.903 541.818 107.43 541.7C106.903 541.561 106.46 541.547 106.321 541.769C106.183 541.99 106.321 541.893 106.321 542.059C106.483 542.224 106.664 542.369 106.862 542.489C107.28 542.772 107.715 543.031 108.164 543.264C108.925 543.659 109.723 543.979 110.547 544.218C111.365 544.346 112.171 544.541 112.957 544.8Z" fill="#263238"/>
<path d="M112.611 545.146C112.166 544.424 111.954 543.584 112.001 542.738C111.968 541.799 112.099 540.863 112.389 539.97C112.559 539.452 112.777 538.952 113.04 538.475C113.181 538.15 113.402 537.866 113.683 537.65C113.965 537.434 114.296 537.294 114.647 537.243C114.869 537.253 115.083 537.326 115.265 537.453C115.447 537.581 115.588 537.758 115.672 537.963C115.801 538.253 115.885 538.561 115.922 538.876C115.998 539.427 115.998 539.986 115.922 540.537C115.766 541.463 115.385 542.338 114.813 543.084C113.816 544.357 112.805 544.62 112.791 544.537C112.777 544.454 113.567 543.969 114.329 542.751C114.765 542.044 115.044 541.251 115.146 540.426C115.204 539.967 115.204 539.502 115.146 539.042C115.077 538.503 114.883 538.073 114.689 538.129C114.495 538.184 114.01 538.516 113.802 538.932C113.548 539.372 113.334 539.836 113.165 540.316C112.874 541.108 112.697 541.937 112.638 542.779C112.514 544.191 112.763 545.104 112.611 545.146Z" fill="#263238"/>
<path d="M61.8382 527.763L60.8824 560.688L52.5703 586.5C52.4275 586.939 52.3768 587.404 52.4215 587.864C52.4663 588.324 52.6054 588.769 52.8303 589.173C53.0552 589.577 53.361 589.93 53.7286 590.211C54.0962 590.492 54.5178 590.693 54.967 590.804C55.4903 590.935 56.0372 590.939 56.5624 590.816C57.0876 590.693 57.576 590.447 57.987 590.098C63.2513 585.531 82.5628 568.688 82.5074 566.279C82.4243 563.511 85.8045 531.679 85.8045 531.679L61.8382 527.763Z" fill="#455A64"/>
<g opacity="0.6">
<path opacity="0.6" d="M55.0225 590.804L82.7291 564.051L82.6599 565.435C82.595 566.64 82.1041 567.783 81.2745 568.66C79.058 571.013 72.7963 577.351 58.1949 590.084C57.7733 590.449 57.2684 590.704 56.7247 590.827C56.1811 590.95 55.6155 590.937 55.0779 590.79L55.0225 590.804Z" fill="white"/>
</g>
<g opacity="0.6">
<path opacity="0.6" d="M76.4673 553.104C76.0451 553.377 75.7401 553.799 75.612 554.285C75.4839 554.771 75.5419 555.288 75.7746 555.733C76.0345 556.163 76.4502 556.476 76.9352 556.608C77.4203 556.739 77.9374 556.679 78.3791 556.439C78.8188 556.147 79.1354 555.703 79.2683 555.193C79.4012 554.682 79.3411 554.14 79.0994 553.671C78.7825 553.257 78.3183 552.979 77.8026 552.897C77.287 552.815 76.7594 552.933 76.3288 553.228" fill="white"/>
</g>
<path d="M63.2928 576.784C63.1127 576.867 62.4477 575.109 60.5221 574.085C59.3458 573.541 58.0763 573.226 56.7817 573.158C56.7817 573.075 57.1835 572.84 57.9592 572.77C58.9785 572.712 59.993 572.948 60.8823 573.449C61.7781 573.938 62.5103 574.679 62.988 575.58C63.3482 576.313 63.3759 576.784 63.2928 576.784Z" fill="#263238"/>
<path d="M60.7299 581.116C59.0012 579.768 56.8823 579.016 54.6899 578.971C55.212 578.679 55.7965 578.517 56.3942 578.498C56.992 578.479 57.5857 578.603 58.1256 578.86C60.0373 579.552 60.8962 581.033 60.7299 581.116Z" fill="#263238"/>
<path d="M67.9476 571.414C66.638 570.383 65.2483 569.457 63.7916 568.646C62.2155 568.069 60.5997 567.606 58.9568 567.262C60.6985 566.894 62.5143 567.154 64.0825 567.996C65.7406 568.633 67.1129 569.847 67.9476 571.414Z" fill="#263238"/>
<path d="M69.0834 561.422C68.9865 561.615 67.1994 560.771 64.8443 560.564C62.4893 560.356 60.5776 560.827 60.5083 560.564C61.8386 559.792 63.3996 559.518 64.9136 559.789C66.4522 559.828 67.928 560.406 69.0834 561.422Z" fill="#263238"/>
<path d="M69.6654 551.775C68.2612 551.231 66.7877 550.887 65.2878 550.751C63.7768 550.835 62.2848 551.128 60.8547 551.623C60.8547 551.54 61.1872 551.152 61.9768 550.751C63.0108 550.247 64.1515 550 65.3016 550.031C66.4465 550.043 67.572 550.328 68.5849 550.862C69.2914 551.291 69.6654 551.706 69.6654 551.775Z" fill="#263238"/>
<path d="M65.3707 548.91C65.276 548.5 65.276 548.074 65.3707 547.665C65.5359 546.531 65.9319 545.443 66.5344 544.468C66.902 543.707 67.5108 543.089 68.266 542.71C68.5276 542.616 68.8115 542.602 69.0808 542.671C69.3501 542.74 69.5923 542.889 69.776 543.097C70.1147 543.523 70.2737 544.065 70.2193 544.606C70.0806 545.701 69.5653 546.714 68.7618 547.471C67.9582 548.228 66.9162 548.683 65.814 548.758C64.7191 548.811 63.6332 548.537 62.6937 547.973C61.7542 547.409 61.0033 546.579 60.5359 545.589C60.4193 545.337 60.3589 545.063 60.3589 544.786C60.3589 544.509 60.4193 544.235 60.5359 543.983C60.681 543.756 60.8894 543.576 61.1355 543.465C61.3816 543.355 61.6547 543.318 61.9213 543.36C62.719 543.58 63.4451 544.004 64.0269 544.592C64.884 545.352 65.6014 546.256 66.1465 547.263C66.3761 547.615 66.5273 548.011 66.5898 548.426C65.7971 547.143 64.8218 545.982 63.6945 544.98C63.1675 544.486 62.5242 544.134 61.8243 543.956C61.6764 543.92 61.5211 543.933 61.3813 543.993C61.2415 544.053 61.1248 544.156 61.0485 544.288C60.9859 544.458 60.9598 544.64 60.9717 544.821C60.9837 545.002 61.0334 545.179 61.1178 545.34C61.5457 546.185 62.2084 546.889 63.0265 547.368C63.8447 547.846 64.7837 548.079 65.7309 548.038C66.6638 547.965 67.5447 547.58 68.2311 546.944C68.9175 546.309 69.3691 545.461 69.5128 544.537C69.5565 544.157 69.4632 543.774 69.2496 543.457C69.1495 543.341 69.0166 543.258 68.8683 543.218C68.72 543.179 68.5632 543.185 68.4184 543.236C67.7939 543.54 67.2733 544.021 66.9223 544.62C66.1499 545.945 65.6243 547.398 65.3707 548.91Z" fill="#263238"/>
<path d="M97.469 318.433L90.9994 547.194L55.812 550.031L26.4707 313.174L97.469 318.433Z" fill="#ED394A"/>
<path d="M144.917 315.526C144.917 315.526 140.151 388.131 135.607 415.34C131.063 442.55 119.994 540.869 114.827 543.139C109.66 545.409 79.4595 542.322 79.4595 542.322L68.6816 317.824L144.917 315.526Z" fill="#ED394A"/>
<g opacity="0.3">
<path opacity="0.3" d="M143.933 329.754L143.628 333.85L87.6055 340.909L71.4387 331.719L38.9941 330.044L143.933 329.754Z" fill="black"/>
</g>
<path d="M92.2048 544.952C92.3987 544.952 91.526 498.117 90.2514 440.377C88.9769 382.636 87.7994 335.802 87.6055 335.816C87.4115 335.83 88.2981 382.623 89.5726 440.391C90.8472 498.159 92.0247 544.952 92.2048 544.952Z" fill="#263238"/>
<path d="M133.058 220.349L161.097 210.453C161.097 210.453 143.24 149.128 140.096 148.408C136.951 147.689 102.581 132.645 102.581 132.645L81.9118 174.317L50.3539 138.25C50.3539 138.25 20.9155 160.311 19.1562 165.21C17.3968 170.109 41.5986 240.5 41.5986 240.5C41.5986 240.5 30.7237 257.315 28.6319 276.221C26.54 295.126 30.7237 330.847 30.7237 330.847L150.181 329.754C150.181 329.754 151.456 276.996 142.368 249.482C138.752 238.576 134.859 226.148 133.058 220.349Z" fill="#ED394A"/>
<path d="M73.5998 191.423C73.3989 191.327 73.1904 191.249 72.9764 191.188C72.3488 190.97 71.6979 190.826 71.0369 190.759C68.5331 190.54 66.0105 190.812 63.6115 191.561C60.4945 192.392 56.8095 193.734 52.5289 195.174C50.4093 195.893 48.1512 196.558 45.7269 197.236C43.2271 197.954 40.6507 198.372 38.0521 198.481H37.8027V198.827C39.6175 208.834 41.7371 220.57 43.9813 233.054C44.106 233.704 44.2168 234.327 44.3277 234.95L44.4108 235.393L44.8125 235.213C47.6756 233.903 50.5247 232.68 53.3601 231.545C56.0595 230.391 58.8371 229.43 61.6721 228.666C66.9729 227.591 72.3427 226.888 77.7419 226.563H78.0606V226.258C76.7584 215.809 75.664 207.09 74.902 200.931C74.5003 197.942 74.1955 195.575 73.9738 193.9C73.863 193.125 73.7799 192.516 73.7245 192.06C73.7044 191.853 73.6626 191.649 73.5998 191.451V192.115C73.5998 192.586 73.7106 193.208 73.7938 193.997C73.9739 195.7 74.2371 198.149 74.5557 201.111C75.2622 207.242 76.2458 215.92 77.4372 226.328L77.7004 225.995C72.2799 226.29 66.8869 226.966 61.5612 228.016C58.6721 228.785 55.8393 229.751 53.083 230.909C50.2569 232.043 47.3985 233.271 44.5078 234.59L44.9926 234.839C44.8818 234.216 44.771 233.58 44.6463 232.943L38.3846 198.717L38.066 199.077C40.7273 198.962 43.3649 198.525 45.9208 197.776C48.359 197.125 50.6309 196.392 52.7366 195.644C56.9619 194.163 60.6192 192.779 63.7085 191.907C66.8692 190.695 70.3356 190.525 73.5998 191.423Z" fill="#263238"/>
<path d="M19.1561 165.21L0.938965 233.856L37.8442 247.198L41.5984 240.5L19.1561 165.21Z" fill="#ED394A"/>
<path d="M150.181 316.495H149.876L149.003 316.647L145.609 317.215C142.672 317.685 138.406 318.336 133.141 318.71C130.255 318.931 127.356 318.931 124.469 318.71C123.683 318.646 122.901 318.536 122.128 318.377C121.74 318.294 121.338 318.239 120.95 318.128L119.801 317.755C118.249 317.326 117.404 315.692 116.697 314.17C116.023 312.518 115.499 310.809 115.132 309.063C114.73 307.264 114.412 305.423 114.148 303.527C113.608 299.749 113.262 295.804 113.012 291.749C112.486 282.905 112.417 274.477 112.541 267.031L112.237 267.335L136.882 266.81L143.891 266.616L145.748 266.533C145.96 266.556 146.173 266.556 146.385 266.533H145.748H136.882L112.223 266.81H111.918V267.114C111.752 274.574 111.793 283.016 112.334 291.888C112.583 295.957 112.929 299.915 113.483 303.721C113.747 305.631 114.079 307.485 114.495 309.257C114.877 311.041 115.42 312.787 116.116 314.475C116.486 315.3 116.951 316.081 117.501 316.8C117.783 317.152 118.098 317.477 118.443 317.768C118.813 318.028 119.219 318.233 119.648 318.377L120.853 318.765C121.269 318.876 121.671 318.931 122.073 319.014C122.863 319.174 123.664 319.28 124.469 319.332C127.385 319.536 130.313 319.508 133.224 319.249C137.432 318.904 141.617 318.331 145.762 317.533C147.23 317.256 148.352 317.007 149.128 316.841L149.987 316.62C150.084 316.592 150.195 316.509 150.181 316.495Z" fill="#263238"/>
<path d="M112.528 275.667C112.528 275.861 120.396 276.013 130.094 276.013C139.791 276.013 147.66 275.861 147.66 275.667C147.66 275.473 139.791 275.321 130.094 275.321C120.396 275.321 112.528 275.487 112.528 275.667Z" fill="#263238"/>
<path d="M96.6518 199.063C96.4994 199.173 105.518 211.339 116.808 226.217C128.099 241.095 137.353 253.08 137.547 252.928C137.741 252.776 128.681 240.652 117.39 225.76C106.1 210.868 96.8042 198.952 96.6518 199.063Z" fill="#263238"/>
<path d="M134.776 206.882C134.969 206.199 135.099 205.5 135.164 204.793C135.372 203.409 135.621 201.485 135.884 199.049C136.586 192.715 136.961 186.35 137.006 179.977C137.054 173.597 136.725 167.22 136.023 160.878C135.746 158.456 135.469 156.491 135.247 155.135C135.166 154.432 135.027 153.738 134.831 153.059C134.829 153.767 134.88 154.475 134.984 155.176C135.122 156.56 135.316 158.498 135.538 160.934C135.967 165.791 136.369 172.518 136.328 179.964C136.286 187.409 135.815 194.136 135.413 199.007C135.205 201.346 135.025 203.284 134.901 204.765C134.803 205.466 134.761 206.174 134.776 206.882Z" fill="#263238"/>
<path d="M108.15 184.863C108.3 185.499 108.509 186.12 108.773 186.717C109.217 187.894 109.895 189.569 110.754 191.645C112.486 195.797 114.91 201.457 117.958 207.63C121.006 213.802 123.832 219.283 126.007 223.214C127.087 225.179 127.988 226.757 128.639 227.822C128.937 228.403 129.29 228.955 129.692 229.469C129.476 228.854 129.203 228.261 128.874 227.698C128.237 226.48 127.42 224.93 126.436 222.978C124.372 219.006 121.56 213.484 118.581 207.325C115.603 201.166 113.04 195.547 111.198 191.451L109.023 186.607C108.779 186.003 108.487 185.42 108.15 184.863Z" fill="#263238"/>
<path d="M41.5984 144.976C41.7704 145.296 41.9746 145.597 42.2079 145.876C42.6512 146.498 43.2747 147.343 44.0505 148.394L50.9771 157.653L74.597 188.697L74.694 188.821H89.9327L90.0297 188.627C96.8039 174.303 102.816 161.584 107.18 152.38C109.3 147.827 111.004 144.076 112.223 141.544L113.608 138.61C113.747 138.305 113.844 138.042 113.94 137.835C113.977 137.749 114.01 137.661 114.037 137.572C114.037 137.572 114.037 137.641 113.885 137.807L113.497 138.554L112.043 141.447L106.82 152.173C102.415 161.363 96.3191 174.054 89.4617 188.323L89.7803 188.129H74.8879L75.165 188.268L51.365 157.432L44.2444 148.298L42.3049 145.862C42.0923 145.549 41.8561 145.253 41.5984 144.976Z" fill="#263238"/>
<path d="M44.2582 270.394C44.6236 270.068 44.9449 269.696 45.2141 269.287C45.796 268.553 46.5994 267.46 47.5276 266.062C52.3603 258.746 55.8113 250.608 57.7098 242.05C58.07 240.403 58.3055 239.074 58.4302 238.147C58.5224 237.692 58.5642 237.227 58.5549 236.763C58.444 236.763 58.07 238.77 57.1695 242.008C55.0248 250.429 51.6102 258.474 47.0428 265.868C45.3665 268.636 44.1751 270.325 44.2582 270.394Z" fill="#263238"/>
<path d="M53.457 250.755C53.5678 250.575 50.3955 248.375 46.7797 245.219C43.164 242.064 40.4764 239.351 40.3379 239.489C42.0348 241.845 44.054 243.95 46.3364 245.745C48.474 247.727 50.8691 249.412 53.457 250.755Z" fill="#263238"/>
<path d="M36.5697 249.828C36.6892 249.683 36.7915 249.525 36.8745 249.357L37.6503 247.973C38.3569 246.672 39.3127 244.901 40.5179 242.7V242.631V242.548C38.5923 235.157 35.3368 223.034 31.6241 209.332C28.5072 198.052 25.6811 187.852 23.6169 180.365L21.1233 171.604C20.8324 170.635 20.5969 169.846 20.403 169.238C20.3406 168.954 20.2429 168.68 20.1121 168.421C20.1486 168.706 20.2041 168.988 20.2783 169.265L20.8601 171.673C21.4281 173.832 22.2455 176.822 23.1459 180.489C25.1685 187.991 27.9253 198.205 30.9592 209.553C34.6857 223.214 38.0382 235.31 40.1301 242.659V242.507L37.4287 247.876L36.7498 249.26C36.6621 249.44 36.6014 249.631 36.5697 249.828Z" fill="#263238"/>
<g opacity="0.3">
<path opacity="0.3" d="M104.146 200.848C116.037 216.266 126.301 232.87 134.776 250.395L133.862 249.952L125.176 237.87L103.855 208.266C102.875 207.121 102.202 205.744 101.902 204.267C101.778 203.519 101.941 202.753 102.356 202.12C102.772 201.486 103.411 201.032 104.146 200.848Z" fill="black"/>
</g>
<g opacity="0.3">
<path opacity="0.3" d="M134.776 206.882C137.964 200.782 139.754 194.049 140.017 187.173C140.281 180.296 139.011 173.446 136.3 167.12C136.3 167.12 136.161 200.419 134.776 206.882Z" fill="black"/>
</g>
<path d="M39.853 206.163C40.3181 206.176 40.7831 206.134 41.2384 206.038C42.1388 205.914 43.4272 205.706 45.0203 205.429C48.2066 204.862 52.5842 203.962 57.3775 202.786C62.1708 201.609 66.4514 200.364 69.5407 199.381C71.0785 198.883 72.3114 198.468 73.1703 198.163C73.629 198.043 74.0676 197.856 74.4725 197.61C74.0014 197.655 73.5368 197.753 73.0872 197.9L69.4022 198.91C66.2852 199.769 61.9907 200.945 57.2113 202.121C52.4319 203.298 48.0819 204.267 44.9234 204.959L41.1968 205.775C40.7331 205.842 40.2809 205.972 39.853 206.163Z" fill="#263238"/>
<g opacity="0.3">
<path opacity="0.3" d="M77.7697 226.258C77.7697 226.258 54.4268 237.607 44.7295 234.936C44.7295 234.936 61.3535 225.58 77.7697 226.258Z" fill="black"/>
</g>
<g opacity="0.3">
<path opacity="0.3" d="M39.2711 239.559C39.2711 239.559 21.2618 228.293 24.7113 184.199L39.2711 239.559Z" fill="black"/>
</g>
<path d="M12.6589 238.133C12.6589 238.133 10.0961 280.94 11.1212 287.528C12.1463 294.116 15.9422 324.301 15.9422 324.301L31.0977 321.145L35.2537 246.243L12.6589 238.133Z" fill="#FFBE9D"/>
<path d="M37.8857 350.016C36.8467 346.389 37.7056 339.483 37.1931 337.061C36.9437 335.926 33.3557 323.803 32.3998 322.363L33.3141 302.669L9.18164 303.679L14.3212 323.138C13.0744 325.906 9.18164 338.445 9.18164 339.013C9.18164 339.58 10.0544 349.67 10.0544 349.67L14.8615 354.943C15.0032 355.085 15.1742 355.195 15.3627 355.265C15.5511 355.334 15.7525 355.362 15.9528 355.346C16.1532 355.331 16.3477 355.271 16.5228 355.173C16.698 355.075 16.8496 354.939 16.9672 354.777L17.4798 353.988C17.6587 354.628 18.0128 355.205 18.5023 355.655C18.9918 356.105 19.5972 356.409 20.2504 356.534C23.0211 357.019 23.0211 356.23 23.0211 356.23L23.6584 353.808C23.6584 353.808 27.6758 356.963 28.7148 357.115C29.7538 357.268 30.4465 352.604 30.4465 352.604L26.997 345.006L28.0222 337.407C28.0222 337.407 33.5635 353.808 35.0458 353.808C36.5281 353.808 38.9109 353.642 37.8857 350.016Z" fill="#455A64"/>
<path d="M150.195 329.754C150.195 329.961 124.497 330.307 92.8004 330.543C61.104 330.778 35.4199 330.806 35.406 330.543C35.3922 330.28 61.104 330.003 92.8004 329.768C124.497 329.532 150.181 329.56 150.195 329.754Z" fill="#263238"/>
<path d="M19.0592 338.072C19.1708 338.898 19.1708 339.736 19.0592 340.563C18.9503 342.527 19.1134 344.497 19.5441 346.417C20.101 348.29 21.0134 350.038 22.2316 351.566C22.7815 352.19 23.2473 352.883 23.6169 353.628C23.5477 353.697 22.8411 353.047 21.816 351.884C20.429 350.372 19.4055 348.564 18.8237 346.597C18.3702 344.609 18.2717 342.557 18.5327 340.535C18.5847 339.692 18.7622 338.862 19.0592 338.072Z" fill="#263238"/>
<path d="M12.8668 339.262C13.2708 339.958 13.4678 340.755 13.4347 341.559C13.5871 343.026 13.2962 345.047 13.6287 347.095C14.0418 348.884 14.8408 350.561 15.9699 352.009C16.482 352.601 16.9151 353.257 17.2583 353.96C17.189 354.029 16.5241 353.42 15.5682 352.313C14.2535 350.877 13.3408 349.12 12.9222 347.22C12.7538 345.328 12.7538 343.424 12.9222 341.532C12.9499 340.12 12.7421 339.29 12.8668 339.262Z" fill="#263238"/>
<path d="M158.451 224.418C158.562 224.611 156.429 225.802 154.462 228.002C152.494 230.203 151.455 232.389 151.248 232.306C151.757 230.525 152.673 228.886 153.923 227.517C155.172 226.149 156.722 225.088 158.451 224.418Z" fill="#EB996E"/>
<path d="M226.125 217.29C227.658 216.611 229.064 215.675 230.281 214.522C230.712 213.945 230.981 213.264 231.061 212.549C231.142 211.834 231.03 211.111 230.738 210.453L226.97 211.837C228.243 211.421 229.334 210.581 230.059 209.457C230.272 209.213 230.432 208.928 230.53 208.62C230.628 208.312 230.662 207.987 230.629 207.666C230.597 207.344 230.499 207.032 230.341 206.75C230.184 206.468 229.97 206.221 229.713 206.024C229.713 206.024 223.174 208.64 220.611 209.47C220.251 209.72 206.938 214.813 206.232 215.56L193.764 228.846L175.477 224.694L173.829 249.703C173.829 249.703 196.908 247.337 200.787 246.202C204.666 245.067 214.738 235.462 214.738 235.462L219.295 229.428L227.386 224.944C228.771 223.975 230.239 222.176 228.979 220.459C231.542 218.812 230.212 215.588 230.212 215.588L226.125 217.29Z" fill="#455A64"/>
<path d="M208.614 238.7C209.707 237.994 210.753 237.218 211.745 236.375C212.82 235.37 213.661 234.141 214.211 232.777C214.926 231.024 215.146 229.11 214.848 227.241V226.95L215.112 226.867L220.196 225.248C221.101 224.992 221.985 224.668 222.842 224.279C223.693 223.882 224.435 223.284 225.003 222.535C225.563 221.728 225.8 220.741 225.668 219.767L226.028 220.044L213.56 220.335H213.726L207.949 224.487L206.342 225.594C206.163 225.736 205.968 225.857 205.76 225.954C206.356 225.306 207.025 224.73 207.755 224.238C209.141 223.186 211.011 221.719 213.394 219.92H213.463H213.546L225.945 219.477H226.208V219.767C226.312 220.358 226.296 220.963 226.163 221.548C226.03 222.132 225.782 222.684 225.432 223.172C224.098 224.728 222.268 225.778 220.251 226.148L215.167 227.725L215.375 227.352C215.675 229.327 215.411 231.346 214.613 233.178C214.002 234.589 213.078 235.843 211.911 236.846L211.219 237.427L210.568 237.87C210.222 238.109 209.855 238.317 209.473 238.493C209.197 238.597 208.908 238.667 208.614 238.7Z" fill="#263238"/>
<path d="M215.887 219.2C215.097 218.801 214.362 218.304 213.698 217.719L213.407 217.498L213.74 217.318C215.388 216.39 217.896 215.131 220.819 213.885C223.493 212.723 225.959 211.809 227.746 211.214C228.707 210.835 229.712 210.579 230.738 210.453C229.858 210.958 228.93 211.376 227.967 211.699C226.208 212.404 223.811 213.401 221.138 214.467C218.256 215.712 215.693 216.889 213.975 217.678V217.276C214.694 217.831 215.337 218.478 215.887 219.2Z" fill="#263238"/>
<path d="M221.498 219.2C222.799 218.266 224.239 217.543 225.765 217.055C227.217 216.335 228.766 215.832 230.364 215.56C229.055 216.48 227.617 217.203 226.097 217.705C224.645 218.425 223.096 218.928 221.498 219.2Z" fill="#263238"/>
<path d="M297.4 0.610962H286.553V548.08H297.4V0.610962Z" fill="#E0E0E0"/>
<path d="M235.213 22.9072C228.868 22.9072 225.737 12.2366 225.405 10.9771L229.408 9.88376C230.475 13.7451 233.135 18.949 235.379 18.7414C237.521 18.3007 239.439 17.1197 240.796 15.4059C241.743 14.3323 242.909 13.474 244.216 12.8891C245.524 12.3042 246.941 12.0061 248.373 12.0151H331.881C334.805 12.0241 337.614 13.1479 339.736 15.1568C342.119 17.385 344.446 18.603 346.275 18.603C349.046 18.603 350.971 15.3921 351.622 13.2192L355.598 14.4371C354.338 18.5891 350.971 22.7411 346.275 22.7411C342.576 22.7411 339.141 20.2499 336.896 18.1739C335.545 16.8839 333.75 16.1607 331.881 16.1533H248.373C247.54 16.1567 246.717 16.336 245.958 16.6795C245.198 17.0229 244.52 17.5228 243.968 18.1462C241.956 20.6646 239.076 22.3425 235.892 22.8518L235.213 22.9072Z" fill="#E0E0E0"/>
<path d="M290.072 15.1153C290.072 15.3229 280.472 15.4751 268.655 15.4751C256.838 15.4751 247.238 15.3229 247.238 15.1153C247.238 14.9077 256.824 14.7555 268.655 14.7555C280.486 14.7555 290.072 14.88 290.072 15.1153Z" fill="#263238"/>
<path d="M289.934 15.0184C289.809 14.88 289.934 14.451 289.934 13.9942C289.934 13.5375 289.573 13.1777 289.656 12.9978C289.74 12.8178 290.488 12.9978 290.64 13.8835C290.792 14.7693 289.934 15.1983 289.934 15.0184Z" fill="#263238"/>
<path d="M297.483 43.3766C297.29 43.3766 297.123 33.91 297.123 22.2291C297.123 10.5481 297.29 1.08154 297.483 1.08154C297.677 1.08154 297.844 10.5481 297.844 22.2291C297.844 33.91 297.691 43.3766 297.483 43.3766Z" fill="#263238"/>
<path d="M278.92 160.477H236.418V137.765C236.418 134.016 237.908 130.421 240.56 127.769C243.212 125.116 246.81 123.625 250.562 123.621H264.776C268.528 123.625 272.126 125.116 274.778 127.769C277.43 130.421 278.92 134.016 278.92 137.765V160.477ZM241.959 154.941H273.379V137.765C273.379 135.485 272.473 133.297 270.86 131.683C269.247 130.069 267.059 129.161 264.776 129.157H250.562C248.279 129.161 246.091 130.069 244.478 131.683C242.865 133.297 241.959 135.485 241.959 137.765V154.941Z" fill="#E0E0E0"/>
<path d="M291.928 152.671H222.412V238.673H291.928V152.671Z" fill="#E0E0E0"/>
<path d="M271.522 152.671H222.412V237.898H271.522V152.671Z" fill="#F5F5F5"/>
<path d="M265.302 160.989H228.619V197.637H265.302V160.989Z" fill="white"/>
<path d="M265.288 197.568C265.288 197.568 265.288 197.319 265.288 196.862C265.288 196.405 265.288 195.7 265.288 194.869C265.288 193.084 265.288 190.565 265.205 187.396C265.205 180.946 265.108 171.839 265.053 160.934L265.358 161.238H228.688C228.605 161.238 229.367 160.56 229.048 160.878V165.833C229.048 167.48 229.048 169.113 229.048 170.732V180.199C229.048 186.358 229.048 192.157 229.048 197.485L228.743 197.18L255.231 197.333L262.712 197.416H264.706H265.413C265.201 197.435 264.988 197.435 264.776 197.416H262.85L255.425 197.499L228.743 197.665H228.425V197.568C228.425 192.24 228.425 186.496 228.425 180.282V160.906L228.785 160.546H265.455H265.773V160.864C265.704 171.853 265.649 181.029 265.607 187.52C265.607 190.676 265.607 193.167 265.524 194.938C265.524 195.741 265.524 196.322 265.524 196.862C265.471 197.105 265.392 197.342 265.288 197.568Z" fill="#263238"/>
<path d="M290.737 152.671C290.737 152.865 275.498 153.031 256.672 153.031C237.845 153.031 222.606 152.865 222.606 152.671C222.606 152.477 237.845 152.311 256.672 152.311C275.498 152.311 290.737 152.477 290.737 152.671Z" fill="#263238"/>
<path d="M291.942 238.673C291.734 238.673 291.582 219.56 291.582 195.99C291.582 172.421 291.734 153.322 291.942 153.322C292.15 153.322 292.302 172.421 292.302 195.99C292.302 219.56 292.136 238.673 291.942 238.673Z" fill="#263238"/>
<path d="M271.536 238.673C271.328 238.673 271.162 219.56 271.162 195.99C271.162 172.421 271.328 153.322 271.536 153.322C271.744 153.322 271.896 172.421 271.896 195.99C271.896 219.56 271.73 238.673 271.536 238.673Z" fill="#263238"/>
<path d="M234.243 204.751H228.619V210.37H234.243V204.751Z" fill="#455A64"/>
<path d="M242.001 204.751H236.376V210.37H242.001V204.751Z" fill="#455A64"/>
<path d="M249.759 204.751H244.134V210.37H249.759V204.751Z" fill="#455A64"/>
<path d="M257.531 204.751H251.906V210.37H257.531V204.751Z" fill="#455A64"/>
<path d="M265.288 204.751H259.664V210.37H265.288V204.751Z" fill="#455A64"/>
<path d="M234.243 212.211H228.619V217.83H234.243V212.211Z" fill="#455A64"/>
<path d="M242.001 212.211H236.376V217.83H242.001V212.211Z" fill="#455A64"/>
<path d="M249.759 212.211H244.134V217.83H249.759V212.211Z" fill="#455A64"/>
<path d="M257.531 212.211H251.906V217.83H257.531V212.211Z" fill="#455A64"/>
<path d="M265.288 212.211H259.664V217.83H265.288V212.211Z" fill="#455A64"/>
<path d="M234.243 219.657H228.619V225.276H234.243V219.657Z" fill="#455A64"/>
<path d="M242.001 219.657H236.376V225.276H242.001V219.657Z" fill="#455A64"/>
<path d="M249.759 219.657H244.134V225.276H249.759V219.657Z" fill="#455A64"/>
<path d="M265.302 219.657H251.906V225.276H265.302V219.657Z" fill="#ED394A"/>
<path d="M263.446 179.908C263.446 179.908 262.601 179.825 261.063 179.701C260.138 179.621 259.206 179.663 258.292 179.825C257.11 180.03 256.026 180.613 255.203 181.486C254.773 182.063 254.463 182.721 254.292 183.419C254.121 184.118 254.091 184.844 254.206 185.555C254.282 186.411 254.282 187.273 254.206 188.129C254.067 189.075 253.663 189.962 253.042 190.69C252.695 191.105 252.224 191.398 251.697 191.525C251.171 191.653 250.617 191.607 250.119 191.395C249.176 190.889 248.454 190.051 248.096 189.043C247.341 187.095 246.848 185.057 246.628 182.981C246.337 180.863 246.628 178.746 246.406 176.85C246.33 175.931 246.025 175.046 245.52 174.275C245.05 173.554 244.337 173.024 243.511 172.781C243.124 172.695 242.722 172.701 242.337 172.797C241.953 172.893 241.596 173.077 241.294 173.334C240.696 173.849 240.223 174.493 239.909 175.216C239.258 176.6 238.995 178.178 238.288 179.368C237.657 180.513 236.656 181.411 235.448 181.915C234.576 182.294 233.627 182.465 232.678 182.413C232.073 182.391 231.477 182.259 230.918 182.026C230.721 181.959 230.537 181.855 230.378 181.721C231.126 181.968 231.904 182.108 232.691 182.136C233.607 182.135 234.51 181.932 235.337 181.541C236.426 181.041 237.317 180.194 237.873 179.133C238.51 177.957 238.745 176.448 239.41 174.912C239.755 174.091 240.286 173.361 240.962 172.781C241.34 172.461 241.786 172.232 242.266 172.112C242.747 171.992 243.249 171.984 243.733 172.089C244.707 172.42 245.558 173.039 246.172 173.865C246.785 174.69 247.133 175.683 247.168 176.711C247.39 178.773 247.168 180.78 247.418 182.842C247.623 184.845 248.089 186.813 248.803 188.697C249.098 189.543 249.688 190.255 250.465 190.703C250.833 190.865 251.244 190.901 251.635 190.806C252.026 190.711 252.374 190.49 252.626 190.177C253.168 189.551 253.519 188.782 253.638 187.963C253.707 187.153 253.707 186.338 253.638 185.527C253.595 184.721 253.651 183.912 253.804 183.119C253.962 182.364 254.321 181.666 254.843 181.098C255.755 180.168 256.947 179.56 258.237 179.368C259.183 179.228 260.145 179.228 261.091 179.368C261.867 179.465 262.476 179.59 262.85 179.673C263.224 179.756 263.46 179.88 263.446 179.908Z" fill="#ED394A"/>
<path d="M335.649 554.64H251.574C251.577 552.89 252.275 551.213 253.513 549.976C254.752 548.739 256.43 548.042 258.182 548.038H329C329.871 548.035 330.734 548.203 331.539 548.533C332.345 548.863 333.078 549.348 333.695 549.961C334.313 550.575 334.803 551.303 335.139 552.106C335.474 552.909 335.648 553.77 335.649 554.64Z" fill="#E0E0E0"/>
<path d="M266.092 560.757C266.092 562.613 265.541 564.427 264.509 565.971C263.477 567.514 262.01 568.716 260.294 569.427C258.577 570.137 256.689 570.323 254.867 569.961C253.045 569.599 251.371 568.705 250.058 567.392C248.744 566.08 247.85 564.408 247.487 562.588C247.125 560.768 247.311 558.881 248.022 557.166C248.732 555.452 249.936 553.986 251.481 552.955C253.026 551.924 254.842 551.374 256.699 551.374C259.19 551.374 261.579 552.362 263.341 554.122C265.102 555.882 266.092 558.269 266.092 560.757Z" fill="#263238"/>
<path d="M344.266 560.757C344.266 562.613 343.715 564.427 342.683 565.971C341.651 567.514 340.184 568.716 338.468 569.427C336.752 570.137 334.863 570.323 333.041 569.961C331.219 569.599 329.546 568.705 328.232 567.392C326.919 566.08 326.024 564.408 325.662 562.588C325.299 560.768 325.485 558.881 326.196 557.166C326.907 555.452 328.111 553.986 329.655 552.955C331.2 551.924 333.016 551.374 334.874 551.374C337.364 551.377 339.75 552.367 341.511 554.126C343.272 555.885 344.263 558.27 344.266 560.757Z" fill="#263238"/>
<path d="M293.591 570.196C298.778 570.196 302.983 565.995 302.983 560.813C302.983 555.63 298.778 551.429 293.591 551.429C288.403 551.429 284.198 555.63 284.198 560.813C284.198 565.995 288.403 570.196 293.591 570.196Z" fill="#263238"/>
<path d="M424.117 352.853C422.598 347.95 419.562 343.655 415.444 340.586C411.327 337.517 406.34 335.832 401.203 335.774L381.435 335.456C353.229 334.958 318.111 334.349 301.944 335.29C286.318 336.203 277.091 343.594 272.118 349.656C268.824 353.556 266.38 358.1 264.942 362.997V363.219C253.319 419.091 212.189 566.833 211.371 570.196L222.925 570.03C223.853 566.321 271.702 382.913 275.318 365.53C275.762 363.939 281.067 347.151 302.623 345.891C318.388 344.978 353.271 345.587 381.31 346.071C388.569 346.196 395.427 346.32 401.12 346.389C404.021 346.429 406.834 347.389 409.152 349.13C411.47 350.872 413.175 353.305 414.018 356.077L481.899 570.598L493.093 570.224L424.117 352.853Z" fill="#455A64"/>
<path d="M424.117 352.853C424.117 352.853 424.56 354.154 425.377 356.714C426.195 359.275 427.414 363.067 429.007 368.035C432.193 377.986 436.862 392.643 442.86 411.451C454.788 449.11 472.077 503.432 493.273 570.113L493.383 570.473H493.009L481.816 570.847H481.608L481.539 570.639C466.037 521.687 448.388 465.926 429.243 405.431C424.449 390.299 419.573 374.886 414.613 359.192C414.101 357.218 413.386 355.303 412.48 353.476C411.477 351.708 410.081 350.193 408.4 349.048C406.718 347.904 404.797 347.16 402.783 346.874C401.763 346.748 400.735 346.693 399.707 346.708H396.576L371.28 346.293C354.282 346.03 337.049 345.725 319.607 345.85C315.257 345.85 310.88 345.947 306.502 346.113C302.131 346.102 297.782 346.727 293.591 347.967C289.425 349.287 285.628 351.568 282.508 354.624C279.339 357.703 276.962 361.501 275.581 365.696C273.531 374.789 271.218 383.688 268.987 392.657C266.757 401.625 264.471 410.441 262.227 419.243C257.701 436.829 253.236 454.175 248.831 471.282C239.964 505.453 231.389 538.53 223.174 570.182L223.105 570.431H222.842L211.288 570.584H210.845L210.956 570.155C226.194 514.615 240.158 463.116 251.851 416.932C254.746 405.376 257.544 394.165 260.163 383.287L262.047 375.191C262.638 372.515 263.22 369.858 263.792 367.219L264.665 363.288C264.986 361.981 265.417 360.703 265.953 359.468C266.977 357.04 268.244 354.722 269.735 352.548C272.613 348.288 276.315 344.645 280.624 341.836C284.765 339.163 289.354 337.26 294.173 336.217C298.782 335.311 303.467 334.848 308.164 334.833C312.736 334.695 317.197 334.653 321.547 334.626C338.933 334.626 354.518 334.847 368.108 335.082C381.698 335.318 393.307 335.47 402.741 335.76C406.938 336.074 410.981 337.471 414.475 339.816C417.014 341.506 419.205 343.667 420.931 346.182C421.982 347.711 422.856 349.355 423.535 351.081C423.951 352.272 424.145 352.867 424.145 352.867C424.145 352.867 423.909 352.272 423.48 351.109C422.784 349.391 421.896 347.757 420.834 346.237C418.765 343.287 416.064 340.834 412.927 339.057C409.79 337.281 406.296 336.226 402.7 335.968C393.279 335.719 381.656 335.622 368.066 335.387C354.476 335.151 338.891 334.944 321.505 335.027C317.155 335.027 312.694 335.11 308.137 335.248C303.485 335.269 298.847 335.733 294.283 336.632C289.519 337.651 284.98 339.527 280.887 342.168C276.637 344.951 272.983 348.55 270.137 352.756C268.67 354.932 267.426 357.25 266.424 359.676C265.905 360.887 265.479 362.136 265.15 363.413C264.873 364.714 264.582 366.029 264.305 367.343C263.723 369.991 263.141 372.653 262.559 375.329L260.675 383.425C258.14 394.304 255.356 405.569 252.474 417.084C240.823 463.282 226.887 514.808 211.676 570.335L211.343 569.919L222.911 569.753L222.579 570.002C230.78 538.35 239.355 505.273 248.221 471.102C252.608 454.005 257.069 436.654 261.603 419.05C263.829 410.247 266.083 401.39 268.364 392.477C270.58 383.55 272.894 374.582 274.944 365.53C276.346 361.228 278.77 357.33 282.009 354.168C285.223 351.026 289.134 348.688 293.424 347.345C297.678 346.083 302.093 345.445 306.53 345.448C310.921 345.282 315.299 345.227 319.663 345.185C337.118 345.075 354.296 345.365 371.349 345.642L396.632 346.057H399.776C400.832 346.042 401.888 346.102 402.935 346.237C405.049 346.534 407.067 347.313 408.833 348.513C410.598 349.713 412.064 351.302 413.117 353.157C414.047 355.028 414.781 356.99 415.306 359.012L429.852 405.237C448.956 465.76 466.577 521.493 482.038 570.487L481.76 570.279L492.954 569.919L492.691 570.279L442.556 411.548C436.626 392.712 431.999 378.042 428.855 368.077L425.308 356.728C424.505 354.181 424.117 352.853 424.117 352.853Z" fill="#263238"/>
<path d="M119.925 457.193L107.873 487.834C107.873 487.834 73.0733 485.315 70.2888 490.768L128.473 516.815L149.253 469.842L119.925 457.193Z" fill="#455A64"/>
<path d="M126.658 493.121C127.153 493.539 127.475 494.126 127.562 494.768C127.649 495.409 127.495 496.06 127.129 496.595C126.729 497.102 126.15 497.436 125.511 497.529C124.871 497.622 124.221 497.466 123.693 497.093C123.17 496.649 122.831 496.026 122.741 495.346C122.652 494.666 122.818 493.976 123.209 493.412C123.681 492.922 124.325 492.635 125.005 492.612C125.685 492.589 126.348 492.831 126.852 493.287" fill="#E0E0E0"/>
<path d="M128.487 516.815L130.149 513.078L73.1426 488.914C72.4862 489.014 71.8569 489.246 71.2926 489.595C70.7283 489.945 70.2408 490.405 69.8594 490.948L128.487 516.815Z" fill="#263238"/>
<path d="M107.249 487.793C107.139 488.083 108.524 488.845 109.535 490.381C110.547 491.917 110.782 493.467 111.087 493.467C111.392 493.467 111.71 491.626 110.436 489.772C109.161 487.917 107.305 487.502 107.249 487.793Z" fill="#263238"/>
<path d="M99.9487 487.654C99.7547 487.917 100.794 488.942 101.237 490.588C101.68 492.235 101.403 493.647 101.708 493.758C102.013 493.869 102.886 492.374 102.29 490.284C101.694 488.194 100.143 487.391 99.9487 487.654Z" fill="#263238"/>
<path d="M93.2161 493.536C93.4516 493.716 94.4767 492.443 94.4213 490.547C94.3659 488.651 93.2992 487.433 93.036 487.627C92.7728 487.82 93.2853 489.011 93.2992 490.575C93.3131 492.139 92.9252 493.384 93.2161 493.536Z" fill="#263238"/>
<path d="M110.796 481.067C110.796 481.385 112.306 481.565 113.885 482.451C115.465 483.336 116.518 484.333 116.767 484.153C117.016 483.973 116.254 482.409 114.384 481.468C112.514 480.527 110.755 480.776 110.796 481.067Z" fill="#263238"/>
<path d="M112.611 474.119C113.468 474.796 114.492 475.231 115.575 475.378C116.723 475.656 117.9 475.79 119.08 475.78C119.781 475.777 120.48 475.722 121.172 475.614C121.584 475.579 121.986 475.477 122.364 475.309C122.639 475.186 122.867 474.975 123.012 474.711C123.157 474.446 123.212 474.141 123.167 473.842C123.111 473.576 122.993 473.326 122.822 473.115C122.651 472.903 122.432 472.735 122.183 472.624C121.81 472.467 121.42 472.356 121.02 472.292C120.319 472.177 119.61 472.121 118.9 472.126C117.707 472.145 116.525 472.351 115.395 472.735C113.47 473.399 112.542 474.271 112.625 474.368C112.708 474.465 113.775 473.911 115.617 473.468C116.699 473.225 117.806 473.114 118.914 473.136C119.561 473.152 120.206 473.226 120.84 473.358C121.532 473.455 122.059 473.69 122.1 474.036C122.1 474.16 122.1 474.216 121.893 474.34C121.614 474.457 121.32 474.531 121.02 474.562C119.266 474.829 117.482 474.829 115.728 474.562C114.702 474.332 113.66 474.184 112.611 474.119Z" fill="#263238"/>
<g opacity="0.3">
<path opacity="0.3" d="M119.925 457.193L107.873 487.834C107.873 487.834 73.0733 485.315 70.2888 490.768L128.473 516.815L149.253 469.842L119.925 457.193Z" fill="black"/>
</g>
<path d="M105.85 459.476L83.5188 483.682C83.5188 483.682 51.9887 468.749 47.4309 472.832L92.2464 518.158L128.598 481.883L105.85 459.476Z" fill="#455A64"/>
<path d="M99.1176 495.405C99.4222 495.975 99.5058 496.638 99.3525 497.266C99.1991 497.894 98.8196 498.443 98.2864 498.809C97.7307 499.137 97.0705 499.239 96.4418 499.095C95.813 498.951 95.2634 498.571 94.9062 498.034C94.5786 497.43 94.4879 496.725 94.6517 496.057C94.8156 495.39 95.2224 494.807 95.7928 494.422C96.4104 494.142 97.1125 494.111 97.7526 494.335C98.3928 494.559 98.9214 495.022 99.2285 495.626" fill="#E0E0E0"/>
<path d="M92.2326 518.158L95.1279 515.265L50.7973 472.14C50.1499 471.992 49.4791 471.979 48.8262 472.1C48.1734 472.222 47.5524 472.475 47.0015 472.846L92.2326 518.158Z" fill="#263238"/>
<path d="M82.9508 483.419C82.7292 483.655 83.7405 484.803 84.1284 486.672C84.5163 488.54 84.1284 489.993 84.4747 490.104C84.8211 490.215 85.7077 488.595 85.1951 486.423C84.6825 484.25 83.1032 483.17 82.9508 483.419Z" fill="#263238"/>
<path d="M76.1765 480.651C75.9133 480.817 76.509 482.16 76.3289 483.848C76.1488 485.537 75.3731 486.769 75.6086 486.976C75.8441 487.184 77.2432 486.063 77.4233 483.959C77.6034 481.855 76.3982 480.444 76.1765 480.651Z" fill="#263238"/>
<path d="M67.7675 483.696C67.9199 483.945 69.3329 483.143 69.9702 481.343C70.6075 479.544 70.0533 478.036 69.7762 478.132C69.4992 478.229 69.4992 479.516 68.9451 480.984C68.3909 482.451 67.5597 483.461 67.7675 483.696Z" fill="#263238"/>
<path d="M88.6862 478.437C88.5753 478.728 89.9052 479.447 91.0828 480.776C92.2603 482.105 92.856 483.544 93.1607 483.406C93.4655 483.267 93.3131 481.593 91.9001 480.042C90.4871 478.492 88.7554 478.16 88.6862 478.437Z" fill="#263238"/>
<path d="M92.8699 472.596C92.773 472.68 93.521 473.704 95.1696 474.852C96.1448 475.519 97.1958 476.067 98.3005 476.486C98.9555 476.733 99.6266 476.937 100.309 477.094C100.706 477.202 101.117 477.254 101.528 477.247C101.834 477.232 102.126 477.117 102.359 476.919C102.592 476.721 102.753 476.452 102.817 476.153C102.858 475.886 102.836 475.612 102.752 475.355C102.668 475.097 102.524 474.864 102.332 474.672C102.044 474.384 101.718 474.137 101.362 473.939C100.753 473.579 100.113 473.273 99.4503 473.026C98.3352 472.61 97.1619 472.372 95.9731 472.32C94.8776 472.162 93.76 472.345 92.7729 472.846C92.7729 473.012 94.0198 472.846 95.9038 473.081C96.9927 473.242 98.058 473.535 99.0762 473.953C99.6722 474.206 100.247 474.507 100.794 474.852C101.404 475.212 101.819 475.614 101.736 475.946C101.653 476.278 101.736 476.112 101.431 476.153C101.127 476.158 100.824 476.121 100.531 476.043C99.8881 475.917 99.2542 475.751 98.6329 475.544C97.5779 475.174 96.5579 474.711 95.5852 474.16C94.7185 473.575 93.8111 473.053 92.8699 472.596Z" fill="#263238"/>
<path d="M90.9858 466.369C90.9858 468.486 176.876 371.661 206.107 368.104C231.043 365.101 306.322 366.568 306.322 366.568L257.655 392.601L176.004 402.483L90.9858 466.369Z" fill="#263238"/>
<path d="M322.309 366.596L198.695 374.72C188.453 375.66 178.692 379.501 170.559 385.792L84.5439 472.984L114.647 502.615C114.647 502.615 197.324 435.616 208.365 427.312L337.201 432.848C337.201 432.848 375.312 432.322 386.186 408.531L322.309 366.596Z" fill="#263238"/>
<path d="M281.538 369.253L280.929 369.336L279.142 369.488L272.215 370.014L246.988 371.814L209.584 374.388L198.765 375.121C195.005 375.27 191.28 375.902 187.682 377.004C180.108 379.304 173.235 383.468 167.692 389.114L109.009 448.459C101.5 456.016 95.405 462.133 91.1658 466.451L86.2895 471.24L85.0011 472.486C84.8648 472.637 84.7114 472.771 84.5439 472.887C84.6698 472.728 84.8039 472.576 84.9457 472.43L86.1787 471.129L90.958 466.189C95.114 461.898 101.196 455.725 108.649 448.1L167.207 388.588C172.834 382.86 179.814 378.639 187.502 376.312C191.143 375.211 194.909 374.574 198.709 374.416L209.529 373.71L246.988 371.302L272.243 369.738L279.169 369.35L280.97 369.267L281.538 369.253Z" fill="#455A64"/>
<path d="M402.146 199.492C401.002 197.294 400.508 194.816 400.721 192.348C400.935 189.88 401.847 187.524 403.351 185.555C403.746 185.158 403.999 184.643 404.071 184.088C403.996 183.617 403.784 183.18 403.462 182.828C402.686 181.776 402.131 180.577 401.831 179.305C401.531 178.032 401.492 176.712 401.716 175.424C401.966 174.136 402.549 172.936 403.406 171.943C404.264 170.95 405.368 170.198 406.606 169.763C403.836 166.899 404.584 161.584 407.77 159.107C409.435 157.957 411.407 157.335 413.43 157.32C415.453 157.305 417.435 157.899 419.116 159.024C419.039 157.792 419.361 156.568 420.035 155.534C420.708 154.499 421.698 153.709 422.856 153.28C425.207 152.491 427.751 152.491 430.102 153.28C433.274 154.166 436.626 156.2 437.111 159.48C438.15 157.736 440.561 157.39 442.542 157.806C445.185 158.463 447.493 160.069 449.026 162.318C450.56 164.567 451.21 167.301 450.854 169.999C452.889 169.501 455.028 169.646 456.977 170.414C457.924 170.835 458.707 171.554 459.208 172.461C459.708 173.368 459.898 174.413 459.748 175.438C461.341 174.151 463.696 174.428 465.608 175.147C467.025 175.595 468.271 176.464 469.182 177.638C469.626 178.234 469.876 178.952 469.898 179.695C469.92 180.437 469.714 181.169 469.306 181.79C470.752 181.913 472.099 182.574 473.081 183.641C474.062 184.708 474.607 186.105 474.607 187.555C474.607 189.004 474.062 190.401 473.081 191.468C472.099 192.536 470.752 193.196 469.306 193.319C470.022 194.353 470.462 195.553 470.584 196.804C470.706 198.055 470.506 199.317 470.004 200.47C469.502 201.623 468.714 202.628 467.714 203.392C466.715 204.156 465.537 204.652 464.291 204.834C464.528 205.028 464.718 205.273 464.845 205.551C464.973 205.83 465.035 206.133 465.027 206.439C465.019 206.745 464.941 207.045 464.799 207.316C464.657 207.587 464.455 207.822 464.208 208.003C463.681 208.337 463.083 208.541 462.461 208.599C461.84 208.656 461.214 208.566 460.634 208.336C459.249 212.391 457.864 216.46 456.367 220.515C455.59 223.187 454.393 225.719 452.821 228.016C452.029 229.159 450.98 230.1 449.758 230.764C448.535 231.427 447.174 231.794 445.783 231.836" fill="#263238"/>
<path d="M406.301 187.797C410.25 178.109 424.172 171.881 433.606 176.213L463.294 192.973L461.396 198.246L431.016 268.304L393.75 274.048L404.348 243.987C404.348 243.987 392.448 237.704 395.44 220.362C396.923 211.768 401.868 198.509 406.301 187.797Z" fill="#FFBE9D"/>
<path d="M405.858 203.492C405.677 204.032 405.712 204.621 405.954 205.136C406.197 205.652 406.629 206.054 407.16 206.26C407.682 206.47 408.266 206.466 408.785 206.248C409.304 206.031 409.716 205.617 409.931 205.097C410.112 204.557 410.078 203.968 409.835 203.452C409.593 202.937 409.161 202.534 408.629 202.329C408.107 202.118 407.523 202.122 407.004 202.34C406.485 202.558 406.073 202.972 405.858 203.492Z" fill="#263238"/>
<path d="M406.8 195.741C406.966 196.101 408.961 195.45 411.219 196.226C413.477 197.001 414.752 198.675 415.084 198.481C415.417 198.288 415.084 197.817 414.613 197.097C413.859 196.093 412.815 195.344 411.621 194.952C410.443 194.564 409.17 194.564 407.992 194.952C407.119 195.16 406.717 195.575 406.8 195.741Z" fill="#263238"/>
<path d="M425.461 211.173C425.28 211.713 425.314 212.302 425.557 212.817C425.799 213.333 426.231 213.735 426.763 213.941C427.285 214.151 427.869 214.147 428.388 213.93C428.907 213.712 429.319 213.298 429.534 212.778C429.711 212.238 429.675 211.65 429.433 211.136C429.191 210.621 428.761 210.218 428.231 210.01C427.709 209.8 427.125 209.804 426.606 210.021C426.087 210.239 425.676 210.653 425.461 211.173Z" fill="#263238"/>
<path d="M428.647 204.114C428.813 204.474 430.808 203.838 433.066 204.599C435.324 205.36 436.585 207.062 436.931 206.868C437.278 206.675 436.931 206.204 436.446 205.485C435.702 204.473 434.661 203.718 433.468 203.325C432.288 202.943 431.018 202.943 429.838 203.325C428.966 203.533 428.564 203.948 428.647 204.114Z" fill="#263238"/>
<path d="M414.974 217.691C413.908 216.917 412.749 216.28 411.524 215.795C410.97 215.532 410.457 215.242 410.499 214.813C410.541 214.384 410.956 213.802 411.469 213.221L414.669 209.387C419.157 203.921 422.635 199.34 422.413 199.16C422.191 198.98 418.368 203.312 413.865 208.751L410.721 212.626C410.126 213.206 409.749 213.974 409.654 214.799C409.67 215.03 409.738 215.255 409.853 215.456C409.968 215.658 410.127 215.83 410.319 215.961C410.607 216.156 410.919 216.315 411.247 216.432C412.43 217.009 413.683 217.432 414.974 217.691Z" fill="#263238"/>
<path d="M404.321 243.987C411.994 246.706 420.274 247.234 428.231 245.51C428.231 245.51 418.451 255.945 402.589 248.887L404.321 243.987Z" fill="#EB996E"/>
<path d="M414.073 223.476C414.685 223.082 415.387 222.849 416.114 222.798C416.84 222.747 417.568 222.881 418.229 223.186C418.712 223.401 419.147 223.712 419.507 224.099C419.866 224.487 420.143 224.944 420.321 225.442C420.5 225.922 420.526 226.447 420.395 226.943C420.263 227.438 419.981 227.881 419.587 228.21C419.088 228.495 418.514 228.624 417.941 228.579C417.368 228.535 416.822 228.319 416.373 227.961C415.432 227.225 414.65 226.307 414.073 225.262C413.877 224.997 413.735 224.696 413.657 224.376C413.613 224.224 413.616 224.062 413.666 223.911C413.715 223.761 413.809 223.628 413.935 223.532" fill="#EB996E"/>
<path d="M421.097 221.497C420.737 221.359 419.892 223.809 417.204 224.847C414.516 225.885 411.995 224.736 411.857 225.082C411.774 225.22 412.272 225.746 413.367 226.148C414.793 226.669 416.359 226.669 417.786 226.148C419.151 225.627 420.262 224.601 420.889 223.283C421.332 222.245 421.263 221.539 421.097 221.497Z" fill="#263238"/>
<path d="M430.711 195.783C430.711 196.475 433.08 196.945 435.615 198.163C438.15 199.381 440.062 200.82 440.602 200.391C440.852 200.184 440.602 199.478 440.007 198.578C439.099 197.461 437.949 196.565 436.643 195.958C435.337 195.351 433.91 195.05 432.47 195.077C431.362 195.146 430.711 195.464 430.711 195.783Z" fill="#263238"/>
<path d="M409.862 189.458C410.083 190.108 411.815 190.094 413.699 190.703C415.583 191.312 417.038 192.212 417.592 191.797C417.827 191.589 417.758 190.994 417.232 190.274C416.527 189.371 415.559 188.709 414.461 188.378C413.357 188.028 412.171 188.028 411.067 188.378C410.167 188.697 409.765 189.153 409.862 189.458Z" fill="#263238"/>
<path d="M419.434 171.147C418.388 172.465 417.762 174.068 417.639 175.745C417.516 177.423 417.9 179.099 418.743 180.556C419.585 182.013 420.847 183.182 422.364 183.914C423.88 184.645 425.582 184.903 427.248 184.655C426.553 185.062 426.036 185.714 425.798 186.482C425.56 187.25 425.617 188.079 425.959 188.807C426.669 190.242 427.92 191.337 429.436 191.852C430.992 192.472 432.663 192.751 434.336 192.67C436.009 192.589 437.645 192.149 439.134 191.382C438.864 192.695 438.91 194.054 439.268 195.347C439.626 196.64 440.286 197.829 441.193 198.818C442.1 199.806 443.229 200.566 444.487 201.034C445.745 201.503 447.096 201.667 448.429 201.512C447.323 202.017 446.351 202.773 445.589 203.72C444.828 204.667 444.299 205.778 444.044 206.966C443.789 208.154 443.815 209.384 444.121 210.56C444.427 211.736 445.003 212.823 445.805 213.737C446.606 214.65 447.61 215.364 448.737 215.82C449.864 216.277 451.081 216.464 452.293 216.367C453.505 216.27 454.678 215.891 455.717 215.261C456.756 214.63 457.634 213.766 458.279 212.737C459.619 212.631 460.917 212.219 462.073 211.532C463.228 210.845 464.21 209.902 464.943 208.776C465.675 207.649 466.139 206.37 466.297 205.036C466.456 203.702 466.305 202.35 465.857 201.083C466.774 201.052 467.667 200.779 468.445 200.293C469.223 199.807 469.86 199.125 470.29 198.315C471.144 196.687 471.564 194.866 471.509 193.028C471.597 190.791 471.233 188.559 470.441 186.464C469.648 184.37 468.443 182.456 466.896 180.835C465.306 179.257 463.277 178.192 461.073 177.78C458.87 177.368 456.593 177.627 454.539 178.524C454.129 178.799 453.646 178.943 453.153 178.939C452.475 178.829 452.087 178.123 451.768 177.555C450.494 174.787 449.191 171.798 446.656 170.096C445.095 169.097 443.242 168.655 441.398 168.844C439.553 169.032 437.828 169.84 436.502 171.134C436.136 169.119 435.13 167.275 433.633 165.876C432.135 164.478 430.227 163.598 428.19 163.369C424.034 163.176 420.058 167.009 420.64 171.078" fill="#263238"/>
<path d="M449.094 213.138C448.137 216.533 447.671 220.047 447.709 223.573C447.709 225.068 447.958 226.798 449.233 227.573C449.843 227.875 450.535 227.971 451.205 227.846C451.874 227.721 452.485 227.383 452.946 226.881C453.843 225.859 454.476 224.633 454.788 223.31C456.171 218.672 457.245 213.947 458.002 209.166" fill="#263238"/>
<path d="M451.782 216.944C452.031 216.944 461.036 216.847 458.321 225.248C455.605 233.649 447.751 229.234 447.806 228.999C447.861 228.763 451.782 216.944 451.782 216.944Z" fill="#FFBE9D"/>
<path d="M451.394 226.632C451.394 226.632 451.519 226.784 451.727 226.978C452.029 227.23 452.413 227.362 452.807 227.352C453.805 227.352 455.01 226.134 455.578 224.584C455.824 223.868 455.914 223.108 455.841 222.355C455.848 222.068 455.785 221.782 455.657 221.524C455.529 221.266 455.34 221.043 455.107 220.875C454.953 220.774 454.768 220.731 454.585 220.754C454.402 220.776 454.234 220.863 454.109 220.999C453.915 221.193 453.915 221.387 453.874 221.387C453.832 221.387 453.735 221.179 453.874 220.861C453.986 220.665 454.162 220.513 454.373 220.432C454.653 220.323 454.965 220.323 455.245 220.432C455.569 220.612 455.841 220.872 456.035 221.187C456.229 221.502 456.339 221.861 456.354 222.231C456.479 223.073 456.398 223.932 456.118 224.736C455.919 225.5 455.499 226.189 454.91 226.716C454.321 227.243 453.589 227.584 452.807 227.698C452.561 227.692 452.32 227.63 452.102 227.518C451.883 227.405 451.693 227.244 451.546 227.047C451.352 226.853 451.366 226.632 451.394 226.632Z" fill="#EB996E"/>
<path d="M440.104 189.831H439.827L439.009 189.693C437.987 189.48 436.996 189.141 436.058 188.683C435.383 188.351 434.755 187.932 434.188 187.437C433.504 186.856 432.947 186.14 432.554 185.333C432.123 184.403 431.923 183.382 431.972 182.358C432.027 181.187 432.522 180.081 433.357 179.258L433.551 179.576C431.139 180.295 428.559 180.218 426.195 179.355C424.903 178.885 423.706 178.187 422.662 177.292C422.123 176.829 421.657 176.288 421.277 175.687C420.879 175.046 420.664 174.309 420.654 173.556C420.666 172.684 420.88 171.827 421.277 171.051C421.643 170.312 422.06 169.6 422.524 168.919C422.959 168.233 423.496 167.617 424.117 167.092C424.421 166.816 424.782 166.61 425.175 166.491C425.568 166.371 425.982 166.34 426.389 166.4V166.816C424.834 166.767 423.341 166.196 422.15 165.196C421.058 164.304 420.237 163.125 419.781 161.792C419.373 160.599 419.334 159.311 419.67 158.096C420.016 156.854 420.682 155.724 421.6 154.819C422.519 153.913 423.659 153.263 424.906 152.934C425.425 152.794 425.964 152.743 426.5 152.782C425.977 152.847 425.459 152.944 424.948 153.072C423.537 153.489 422.285 154.324 421.36 155.467C420.695 156.273 420.221 157.219 419.975 158.235C419.669 159.385 419.717 160.6 420.113 161.722C420.565 162.983 421.356 164.094 422.399 164.933C423.528 165.869 424.937 166.4 426.403 166.442V166.871C426.054 166.821 425.699 166.85 425.364 166.956C425.028 167.061 424.72 167.24 424.463 167.48C423.883 167.986 423.379 168.574 422.967 169.224C421.973 170.491 421.354 172.011 421.18 173.611C421.23 174.281 421.425 174.931 421.75 175.519C422.075 176.106 422.523 176.617 423.064 177.016C424.488 178.23 426.192 179.072 428.023 179.465C429.853 179.859 431.753 179.793 433.551 179.272L434.313 179.036L433.745 179.59C432.992 180.349 432.548 181.36 432.498 182.427C432.444 183.34 432.601 184.252 432.957 185.095C433.312 185.937 433.857 186.686 434.548 187.285C435.086 187.778 435.687 188.196 436.335 188.53C437.249 189.007 438.217 189.374 439.217 189.624C439.516 189.678 439.812 189.747 440.104 189.831Z" fill="white"/>
<path d="M415.542 177.445C415.334 177.524 415.111 177.553 414.891 177.528C414.29 177.506 413.699 177.374 413.145 177.14C412.297 176.793 411.577 176.194 411.081 175.424C410.772 174.934 410.668 174.343 410.79 173.777C410.857 173.463 411.012 173.175 411.238 172.947C411.464 172.718 411.751 172.56 412.064 172.49V172.933H411.912C410.896 172.881 409.903 172.606 409.006 172.128C408.108 171.649 407.326 170.979 406.717 170.165C406.35 169.679 406.056 169.143 405.844 168.573C405.758 168.367 405.711 168.146 405.706 167.923C406.061 168.644 406.483 169.329 406.966 169.971C407.574 170.711 408.328 171.316 409.182 171.75C410.036 172.183 410.97 172.435 411.926 172.49H412.078L414.253 172.614L412.106 172.933C411.876 172.986 411.666 173.105 411.502 173.274C411.337 173.444 411.225 173.656 411.178 173.888C411.073 174.362 411.158 174.859 411.413 175.272C411.859 175.946 412.489 176.479 413.228 176.808C413.959 177.146 414.741 177.361 415.542 177.445Z" fill="white"/>
<path d="M382.488 266.491L317.792 307.914L247.251 318.391L248.179 334.805C248.179 334.805 307.929 334.501 317.792 334.805C327.656 335.11 343.504 318.405 343.504 318.405L382.488 266.491Z" fill="#FFBE9D"/>
<path d="M328.03 309.257L325.26 304.482C329.305 302.129 329.997 296.067 329.416 291.597C329.138 289.59 328.654 287.597 328.155 285.493C327.069 281.676 326.514 277.726 326.506 273.757C326.964 262.422 335.012 254.381 342.798 246.603C345.861 243.659 348.757 240.544 351.47 237.275C357.316 229.898 359.782 218.854 353.964 213.166C351.678 210.965 348.187 209.553 344.82 208.183C339.279 205.955 333.087 203.422 331.341 196.862C329.402 189.541 334.943 183.022 340.277 179.604C342.174 178.413 344.169 177.403 346.095 176.434C349.196 175.06 352.08 173.242 354.656 171.037C361.195 164.795 361.583 157.058 361.583 147.592C361.458 134.222 358.812 128.493 356.042 122.431C352.675 115.178 349.212 107.677 349.766 88.2735L355.307 88.4396C354.781 106.528 357.843 113.13 361.07 120.106C363.993 126.444 367.027 132.991 367.166 147.536C367.277 157.612 366.695 167.286 358.577 175.036C355.611 177.632 352.272 179.769 348.672 181.375C346.788 182.33 345.001 183.23 343.324 184.282C339.279 186.856 335.677 191.298 336.786 195.437C337.811 199.34 342.064 201.056 346.982 203.049C350.847 204.613 354.85 206.232 357.898 209.194C366.335 217.359 363.162 231.531 355.889 240.707C353.054 244.152 350.019 247.428 346.801 250.52C339.445 257.869 332.505 264.803 332.131 274.048C332.161 277.505 332.665 280.941 333.627 284.262C334.139 286.393 334.666 288.608 335.012 290.863C335.746 297.285 334.458 305.52 328.03 309.257Z" fill="#E0E0E0"/>
<path d="M326.991 307.471L326.298 306.267C331.23 303.402 332.158 296.662 331.396 291.306C331.092 289.203 330.579 287.071 330.094 285.009C329.056 281.376 328.52 277.618 328.501 273.84C328.931 263.322 336.688 255.571 344.183 248.07C347.304 245.072 350.25 241.897 353.008 238.562C359.339 230.576 362.303 218.425 355.321 211.671C352.758 209.194 349.073 207.699 345.513 206.26C340.221 204.114 334.749 201.886 333.267 196.322C331.604 190.094 336.564 184.365 341.302 181.361C343.116 180.213 345.07 179.23 346.94 178.275C350.232 176.825 353.29 174.894 356.014 172.545C363.134 165.736 363.633 157.211 363.536 147.633C363.412 133.793 360.669 127.884 357.759 121.614C354.504 114.57 351.137 107.304 351.678 88.3981H353.063C352.537 106.971 355.834 114.099 359.02 120.991C361.791 127.122 364.783 133.447 364.922 147.578C365.032 157.529 364.492 166.359 356.97 173.556C354.147 175.995 350.983 178.009 347.577 179.534C345.679 180.444 343.83 181.451 342.036 182.552C337.34 185.513 333.225 190.856 334.597 195.99C335.899 200.89 340.817 202.91 346.026 204.986C349.697 206.481 353.506 208.017 356.277 210.688C363.841 218.024 360.793 230.964 354.088 239.434C351.298 242.832 348.315 246.067 345.153 249.122C337.506 256.762 330.274 263.986 329.914 273.965C329.949 277.618 330.481 281.25 331.493 284.76C331.992 286.85 332.505 289.009 332.879 291.168C333.599 296.912 332.519 304.247 326.991 307.471Z" fill="#ED394A"/>
<path d="M373.718 37.2039C373.386 30.7407 373.718 25.0801 371.294 19.0182C368.523 12.1812 357.842 8.69354 345.125 10.5896C342.468 10.9878 339.927 11.9466 337.669 13.4022C335.412 14.8579 333.491 16.777 332.034 19.032C329.263 23.0733 328.363 27.945 327.795 32.6921C325.782 48.6033 325.457 64.6822 326.825 80.6615C327.446 83.0794 328.644 85.3112 330.316 87.1664C332.089 89.0071 335.151 89.0486 337.838 88.9517L364.949 87.9552C367.72 87.8445 370.781 87.5954 372.499 85.6439C373.542 84.1912 374.073 82.4341 374.009 80.6477C374.801 66.1741 374.704 51.6656 373.718 37.2039ZM355.113 18.5891C354.571 19.1444 353.875 19.5244 353.114 19.6798C352.353 19.8353 351.563 19.7591 350.846 19.4611C350.167 19.1736 349.607 18.6625 349.26 18.0129C348.912 17.3632 348.797 16.6142 348.935 15.8903C349.156 15.1766 349.598 14.5516 350.199 14.1062C350.799 13.6607 351.526 13.4179 352.273 13.413C352.816 13.344 353.367 13.4175 353.872 13.6262C354.378 13.8349 354.82 14.1717 355.155 14.6032C355.568 15.1877 355.786 15.8874 355.779 16.6029C355.772 17.3184 355.539 18.0134 355.113 18.5891Z" fill="#F5F5F5"/>
<path d="M355.113 18.5891C355.42 17.9839 355.581 17.3159 355.584 16.6377C355.522 15.9005 355.264 15.1934 354.836 14.5894C354.523 14.2744 354.141 14.0348 353.721 13.8886C353.301 13.7423 352.854 13.6933 352.412 13.7451H352.273C351.823 13.7583 351.379 13.8605 350.967 14.0458C350.556 14.231 350.185 14.4957 349.877 14.8246C349.456 15.2658 349.206 15.8417 349.171 16.4499C349.135 17.0581 349.317 17.6592 349.683 18.1463C349.974 18.5688 350.363 18.9151 350.816 19.1559C351.269 19.3968 351.774 19.5252 352.287 19.5303C353.283 19.5154 354.249 19.1966 355.058 18.6168C355.058 18.6168 354.933 18.9213 354.504 19.2673C353.864 19.7499 353.089 20.0208 352.287 20.0423C351.68 20.0715 351.076 19.9503 350.527 19.6895C349.978 19.4287 349.503 19.0365 349.143 18.5476C348.695 17.9582 348.452 17.2391 348.45 16.4993C348.47 15.6966 348.791 14.9308 349.35 14.3541C349.725 13.955 350.178 13.6372 350.681 13.4205C351.184 13.2038 351.726 13.0929 352.273 13.0946C352.866 13.0162 353.469 13.0975 354.019 13.3299C354.53 13.5076 354.981 13.8239 355.321 14.2434C355.805 14.9525 356.056 15.7937 356.042 16.6515C355.958 18.1047 355.113 18.6583 355.113 18.5891Z" fill="#263238"/>
<path d="M373.718 37.2039C373.74 37.3924 373.74 37.5828 373.718 37.7714C373.718 38.2004 373.788 38.754 373.843 39.4875C373.926 41.0237 374.051 43.2243 374.217 46.0477C374.494 51.7497 374.854 60.0122 374.674 70.2262C374.619 72.7912 374.517 75.4669 374.369 78.2534C374.273 79.6374 374.259 81.0214 374.037 82.5299C373.869 84.0868 373.092 85.5145 371.876 86.502C370.554 87.3817 369.027 87.9061 367.443 88.0244C365.864 88.2043 364.284 88.2182 362.691 88.2874L352.828 88.6749L342.465 89.0624L337.104 89.27C335.22 89.4156 333.328 89.1415 331.563 88.4673C330.676 88.051 329.912 87.412 329.346 86.6127C328.763 85.8616 328.239 85.0656 327.781 84.2322C327.297 83.3995 326.902 82.5181 326.603 81.6026C326.384 80.658 326.264 79.6933 326.243 78.7239C325.938 74.9317 325.735 71.0889 325.634 67.1952C325.429 59.6016 325.619 52.0024 326.201 44.4284C326.479 40.7608 326.839 37.1624 327.24 33.647C327.528 30.1758 328.23 26.7514 329.332 23.447C330.472 20.2915 332.337 17.4473 334.777 15.143C337.139 13.0131 339.996 11.5052 343.089 10.7557C343.823 10.5619 344.557 10.382 345.291 10.2574L347.494 9.99447L349.655 9.84223H351.775C354.474 9.83712 357.165 10.1389 359.796 10.7418C362.201 11.2802 364.5 12.2157 366.598 13.5098C368.485 14.6672 370.029 16.3057 371.072 18.257C372.482 21.4636 373.285 24.9031 373.441 28.4017C373.621 31.2527 373.621 33.4671 373.649 34.9757C373.649 35.6953 373.649 36.2628 373.649 36.678C373.663 36.8761 373.663 37.075 373.649 37.2731C373.635 37.0796 373.635 36.8853 373.649 36.6918C373.649 36.2628 373.58 35.7092 373.538 34.9757C373.455 33.4809 373.414 31.2527 373.178 28.4155C372.982 24.973 372.155 21.5956 370.74 18.4507C369.721 16.5687 368.214 14.9957 366.376 13.8973C364.311 12.6544 362.055 11.7612 359.699 11.2539C357.106 10.6814 354.457 10.4028 351.802 10.4235H349.711L347.577 10.5896L345.416 10.8525C344.692 10.9791 343.975 11.1454 343.269 11.3508C340.289 12.0872 337.541 13.5574 335.275 15.6273C332.951 17.8698 331.181 20.6231 330.108 23.6684C329.035 26.9299 328.356 30.3077 328.085 33.7301C327.684 37.2316 327.324 40.83 327.06 44.4837C326.489 52.0306 326.304 59.6018 326.506 67.1675C326.603 71.0566 326.811 74.8902 327.102 78.6685C327.127 79.5995 327.238 80.5262 327.434 81.4365C327.722 82.3031 328.098 83.1379 328.557 83.9278C328.993 84.7276 329.494 85.4913 330.053 86.2114C330.55 86.9293 331.228 87.5024 332.02 87.8722C333.68 88.4995 335.459 88.7501 337.229 88.6057L342.576 88.4258L352.938 88.0521L362.802 87.7061C364.409 87.7061 365.988 87.623 367.498 87.457C368.979 87.3561 370.409 86.8798 371.654 86.073C372.753 85.1777 373.45 83.8834 373.594 82.4745C373.815 81.0906 373.843 79.7066 373.954 78.3225C374.12 75.5546 374.231 72.8834 374.3 70.3369C374.55 60.1368 374.3 51.8743 374.079 46.1722C373.968 43.4042 373.885 41.1345 373.829 39.5982C373.829 38.8785 373.829 38.3111 373.829 37.8959C373.766 37.6702 373.729 37.4381 373.718 37.2039Z" fill="#263238"/>
<path d="M366.238 82.5022L337.741 83.2219C335.178 83.2911 332.976 82.1424 332.823 80.6477L331.951 57.6317H370.74V79.7758C370.768 81.229 368.773 82.4469 366.238 82.5022Z" fill="#ED394A"/>
<path d="M338.295 18.2985C336.849 20.5428 335.681 22.9549 334.818 25.4815C333.986 28.2573 333.429 31.1082 333.156 33.993C332.823 37.2454 332.685 40.913 332.519 44.6637C332.228 52.248 332.241 59.1265 332.325 64.0397C332.325 66.434 332.408 68.4131 332.435 69.9355C332.501 70.6537 332.501 71.3764 332.435 72.0946C332.284 71.3892 332.2 70.6708 332.186 69.9494C332.075 68.5654 331.951 66.5447 331.84 64.0535C331.632 59.0711 331.535 52.1788 331.84 44.5806C332.006 40.7746 332.158 37.1624 332.546 33.8685C332.839 30.9454 333.452 28.0632 334.375 25.2739C335.015 23.3929 335.895 21.602 336.993 19.9455C337.283 19.4915 337.602 19.0569 337.949 18.6445C338.143 18.4231 338.282 18.2847 338.295 18.2985Z" fill="#263238"/>
<path d="M369.798 54.5178C369.678 53.1363 369.678 51.7472 369.798 50.3658C369.881 47.8607 369.978 44.3869 369.964 40.567C369.95 36.7472 369.812 33.2595 369.701 30.7545C369.56 29.3749 369.537 27.9859 369.632 26.6025C369.954 27.9279 370.149 29.2812 370.214 30.6438C370.463 33.1626 370.671 36.6365 370.684 40.484C370.698 44.3315 370.518 47.8192 370.297 50.3381C370.273 51.7446 370.105 53.145 369.798 54.5178Z" fill="#263238"/>
<path d="M365.296 82.5853C363.694 82.8632 362.073 83.0113 360.447 83.0282C357.441 83.2219 353.299 83.4157 348.713 83.5956L342.244 83.8171C340.462 83.9451 338.67 83.8193 336.924 83.4434C335.729 83.1541 334.631 82.5577 333.738 81.7134C333.389 81.4217 333.13 81.038 332.99 80.6062C332.99 80.6062 333.294 80.9799 333.932 81.5058C334.844 82.2028 335.906 82.6767 337.035 82.8898C338.745 83.1847 340.487 83.2545 342.216 83.0974L348.685 82.8206C353.271 82.6406 357.413 82.5161 360.433 82.4746C362.054 82.3928 363.68 82.4298 365.296 82.5853Z" fill="#263238"/>
<path d="M346.732 86.2391C346.524 86.2391 346.4 85.5886 346.441 84.855C346.483 84.1215 346.663 83.471 346.871 83.471C347.078 83.471 347.189 84.1077 347.162 84.855C347.134 85.6024 346.885 86.2391 346.732 86.2391Z" fill="#263238"/>
<path d="M348.118 85.464C347.91 85.464 347.757 84.8966 347.757 84.1907C347.757 83.4849 347.91 82.9174 348.118 82.9174C348.325 82.9174 348.478 83.4849 348.478 84.1907C348.478 84.8966 348.256 85.464 348.118 85.464Z" fill="#263238"/>
<path d="M363.938 85.8515C363.744 85.8515 363.481 85.2149 363.37 84.3707C363.259 83.5264 363.37 82.8344 363.522 82.8067C363.675 82.7791 363.966 83.4434 364.09 84.2738C364.215 85.1042 364.132 85.8239 363.938 85.8515Z" fill="#263238"/>
<path d="M365.462 86.1006C365.268 86.1006 364.949 85.4363 364.769 84.5229C364.589 83.6094 364.575 82.8483 364.769 82.8067C364.963 82.7652 365.282 83.471 365.462 84.3845C365.642 85.2979 365.656 86.0591 365.462 86.1006Z" fill="#263238"/>
<path d="M364.506 61.7146H340.235V69.811H364.506V61.7146Z" fill="white"/>
<path d="M360.488 65.6728C355.24 66.1526 349.958 66.1526 344.709 65.6728C349.958 65.193 355.24 65.193 360.488 65.6728Z" fill="#263238"/>
<path d="M365.85 51.4315C364.526 52.4849 363.138 53.4556 361.694 54.3379C359.131 56.0817 355.598 58.4899 351.775 61.2579C347.951 64.0259 344.571 66.7108 342.147 68.6484C340.878 69.7516 339.541 70.7732 338.143 71.7071C338.412 71.3436 338.724 71.0137 339.071 70.7244C339.708 70.1155 340.637 69.3404 341.842 68.2609C344.197 66.2126 347.536 63.4999 351.373 60.6766C355.21 57.8532 358.798 55.4866 361.444 53.8535C362.83 53.0369 363.855 52.3864 364.617 51.9712C365 51.7334 365.415 51.5517 365.85 51.4315Z" fill="white"/>
<path d="M355.28 52.9124C353.464 54.5603 351.498 56.0338 349.406 57.3135C347.445 58.7858 345.343 60.0607 343.13 61.1195C344.942 59.4666 346.909 57.9927 349.004 56.7184C350.965 55.2461 353.067 53.9712 355.28 52.9124Z" fill="white"/>
<path d="M228.3 321.851C228.3 321.851 234.229 320.246 237.485 319.222C239.535 318.571 246.226 316.883 249.011 318.045C251.795 319.208 254.663 323.512 254.663 323.512L252.432 334.113L237.291 349.116C237.291 349.116 234.298 351.067 232.096 349.766C229.893 348.465 228.715 350.804 227.012 348.728C225.848 347.344 221.623 340.743 219.129 336.854C218.543 335.934 218.166 334.898 218.024 333.817C217.883 332.736 217.981 331.637 218.312 330.598L220.002 325.297C220.549 323.522 221.52 321.905 222.83 320.587C224.14 319.268 225.751 318.287 227.524 317.727C228.305 317.374 229.191 317.329 230.004 317.602C231.749 318.696 228.3 321.851 228.3 321.851Z" fill="#FFBE9D"/>
<path d="M240.505 326.668C238.917 325.698 237.036 325.325 235.199 325.616C233.492 325.807 231.904 326.579 230.698 327.801C229.493 329.022 228.744 330.621 228.577 332.328C228.577 332.494 228.577 332.66 228.577 332.826C228.571 334.853 229.288 336.816 230.6 338.362C231.589 339.595 233.02 340.394 234.589 340.591C236.094 340.631 237.575 340.206 238.828 339.373C240.428 338.476 241.747 337.154 242.638 335.553C243.424 334.066 243.641 332.344 243.248 330.708C242.855 329.073 241.88 327.637 240.505 326.668Z" fill="#E0E0E0"/>
<path d="M229.63 337.061C229.336 336.431 229.109 335.773 228.951 335.096C228.703 334.304 228.545 333.487 228.48 332.66C228.379 331.536 228.621 330.407 229.173 329.422C229.85 328.238 230.8 327.232 231.943 326.488C233.229 325.663 234.629 325.033 236.099 324.619C236.447 324.541 236.774 324.388 237.057 324.171C237.339 323.953 237.57 323.676 237.734 323.36C237.821 323.018 237.803 322.657 237.685 322.325C237.567 321.992 237.352 321.702 237.069 321.491C236.413 321.016 235.644 320.72 234.839 320.633C233.973 320.632 233.111 320.748 232.276 320.979C230.566 321.213 228.97 321.967 227.704 323.138C226.58 324.321 225.645 325.67 224.934 327.138C224.309 328.462 223.844 329.856 223.548 331.29C223.371 332.551 223.442 333.834 223.756 335.068C224.119 336.911 224.71 338.7 225.515 340.397C225.824 341.012 226.19 341.596 226.61 342.141C226.61 342.141 226.444 342.044 226.18 341.795C225.828 341.406 225.522 340.979 225.266 340.521C224.347 338.845 223.67 337.046 223.257 335.179C222.882 333.881 222.783 332.518 222.966 331.179C223.242 329.678 223.707 328.218 224.352 326.834C225.05 325.312 225.985 323.911 227.122 322.682C227.429 322.335 227.778 322.028 228.161 321.768C228.549 321.51 228.963 321.292 229.394 321.118C230.256 320.783 231.14 320.51 232.04 320.301C232.942 320.053 233.876 319.936 234.811 319.955C235.759 320.058 236.663 320.412 237.429 320.979C237.824 321.281 238.117 321.695 238.27 322.168C238.424 322.64 238.43 323.147 238.288 323.623C238.089 324.034 237.8 324.395 237.443 324.68C237.086 324.965 236.669 325.166 236.224 325.27C234.793 325.651 233.426 326.238 232.165 327.013C231.092 327.693 230.191 328.612 229.533 329.698C228.999 330.596 228.743 331.631 228.799 332.674C228.829 333.477 228.94 334.274 229.131 335.055C229.357 335.707 229.524 336.379 229.63 337.061Z" fill="#EB996E"/>
<path d="M237.138 342.597C236.037 342.146 234.959 341.638 233.911 341.075C232.767 340.736 231.643 340.334 230.544 339.871C231.785 339.631 233.07 339.821 234.188 340.411C235.392 340.783 236.432 341.554 237.138 342.597Z" fill="#EB996E"/>
<path d="M243.677 335.359C242.736 336.764 241.548 337.987 240.172 338.971C238.067 340.743 236.723 342.501 236.557 342.39C237.228 340.811 238.314 339.443 239.701 338.432C240.911 337.267 242.244 336.236 243.677 335.359Z" fill="#EB996E"/>
<path d="M246.393 324.37C245.439 326.089 244.669 327.903 244.093 329.782C243.758 331.718 243.637 333.686 243.733 335.65C243.043 333.713 242.927 331.619 243.399 329.618C243.871 327.618 244.91 325.795 246.393 324.37Z" fill="#EB996E"/>
<path d="M312.944 308.634C312.611 308.634 312.362 315.249 312.251 319.332C312.238 319.749 312.309 320.165 312.46 320.554C312.611 320.943 312.838 321.298 313.129 321.597C313.42 321.897 313.768 322.135 314.153 322.297C314.537 322.46 314.951 322.543 315.368 322.543H323.472L330.399 316.855C330.956 316.401 331.338 315.767 331.479 315.063C331.621 314.359 331.513 313.627 331.175 312.994L325.772 302.752L317.792 307.859L312.944 308.634Z" fill="#F5F5F5"/>
<path d="M312.944 308.634C313.351 308.505 313.768 308.408 314.191 308.343L317.765 307.721H317.695L325.62 302.531L325.883 302.351L326.049 302.641C327.199 304.814 328.473 307.181 329.817 309.713C330.163 310.336 330.496 310.987 330.842 311.637L331.369 312.62C331.57 312.98 331.719 313.367 331.812 313.769C331.968 314.618 331.805 315.495 331.355 316.232C331.138 316.602 330.851 316.927 330.51 317.187L329.596 317.934L323.694 322.778L323.597 322.862H316.172C315.784 322.862 315.451 322.862 315.022 322.862C314.623 322.815 314.234 322.702 313.872 322.529C313.182 322.184 312.626 321.619 312.293 320.924C312.011 320.28 311.91 319.572 312.002 318.876C312.002 317.616 312.113 316.454 312.154 315.388C312.39 311.153 312.681 308.579 312.944 308.662C312.825 309.244 312.769 309.838 312.778 310.433C312.778 311.596 312.667 313.284 312.611 315.402C312.611 316.467 312.611 317.644 312.528 318.889C312.464 319.498 312.559 320.114 312.805 320.675C313.106 321.256 313.594 321.72 314.191 321.99C314.837 322.246 315.537 322.336 316.227 322.253H323.528L323.306 322.322L329.194 317.464C329.803 317.04 330.344 316.527 330.801 315.941C331.158 315.358 331.286 314.663 331.161 313.99C330.953 313.308 330.655 312.656 330.274 312.052C329.942 311.388 329.596 310.752 329.263 310.115C327.878 307.568 326.7 305.188 325.564 303.001L325.994 303.112L317.959 308.136L314.357 308.579C313.891 308.665 313.415 308.684 312.944 308.634Z" fill="#263238"/>
<path d="M385.757 255.17L341.26 283.819L348.505 296.649L385.757 255.17Z" fill="#ED394A"/>
<path d="M435.393 259.281C435.393 259.281 424.92 260.665 414.821 261.869C408.532 262.644 403.378 259.35 400.566 253.661H399.638L385.715 255.17C377.971 261.177 346.469 289.452 343.754 297.133C340.734 305.7 341.219 324.37 341.219 324.37L317.086 355.344C317.086 355.344 310.506 360.409 319.857 374.028C329.208 387.647 357.926 409.32 357.926 409.32C357.926 409.32 378.179 416.877 383.43 412.088C388.68 407.299 423.84 343.04 423.84 343.04C423.84 343.04 440.02 313.699 443.622 305.326C451.048 287.971 449.247 269.605 435.393 259.281Z" fill="#ED394A"/>
<path d="M379.828 264.125C379.373 264.626 378.877 265.089 378.345 265.509L374.189 268.969C370.615 271.861 365.642 275.889 360.128 280.179C357.358 282.366 354.698 284.331 352.412 286.365C350.379 288.092 348.523 290.016 346.871 292.109C345.385 294.077 344.156 296.225 343.213 298.503C343.213 298.503 343.213 298.323 343.31 297.991C343.441 297.521 343.598 297.059 343.781 296.607C344.458 294.902 345.362 293.296 346.469 291.832C348.1 289.663 349.958 287.672 352.01 285.895C354.296 283.86 356.956 281.826 359.699 279.639C365.24 275.293 370.241 271.335 373.898 268.567L378.248 265.287C378.737 264.85 379.265 264.461 379.828 264.125Z" fill="#263238"/>
<path d="M397.131 298.974C396.064 300.358 369.618 344.341 369.618 344.341L292.039 360.022L297.373 374.637C297.373 374.637 375.921 377.197 382.682 374C389.442 370.803 393.612 364.312 405.235 345.891C417.301 326.764 423.244 318.391 423.244 318.391L397.131 298.974Z" fill="#FFBE9D"/>
<path d="M372.79 339.068C378.027 342.971 391.409 352.382 397.131 356.479C398.807 357.683 401.868 355.773 402.991 354.029L419.296 328.162C420.321 326.584 419.379 324.149 417.911 323L393.709 304.427C391.949 303.043 388.168 305.811 387.115 307.721L371.668 333.892C371.258 334.758 371.146 335.735 371.349 336.671C371.552 337.607 372.058 338.449 372.79 339.068Z" fill="#263238"/>
<path d="M408.075 315.208C407.863 315.666 407.598 316.098 407.285 316.495C406.62 317.409 405.831 318.53 404.902 319.858C402.88 322.626 400.095 326.598 397.075 330.93C394.055 335.262 391.368 339.234 389.414 342.155L387.101 345.656C386.835 346.089 386.524 346.493 386.173 346.86C386.344 346.372 386.577 345.907 386.865 345.476C387.35 344.632 388.071 343.428 388.999 341.947C390.827 338.985 393.446 334.958 396.48 330.598C399.513 326.238 402.367 322.363 404.487 319.609C405.553 318.225 406.426 317.132 407.05 316.371C407.673 315.609 408.033 315.208 408.075 315.208Z" fill="#455A64"/>
<path d="M391.243 300.814L424.311 322.543C424.311 322.543 442.32 297.631 443.207 286.186C444.093 274.74 441.17 268.401 430.739 265.924C420.307 263.446 409.128 275.017 404.985 280.677C400.206 287.223 391.243 300.814 391.243 300.814Z" fill="#ED394A"/>
<path d="M391.243 300.814C391.298 300.695 391.368 300.584 391.451 300.482C391.617 300.219 391.839 299.887 392.102 299.458L394.72 295.527L404.501 280.954C406.867 277.665 409.631 274.681 412.729 272.069C414.441 270.586 416.298 269.278 418.271 268.166C420.352 266.939 422.615 266.051 424.976 265.536L426.846 265.287H428.758C429.395 265.287 430.032 265.467 430.67 265.564C431.307 265.661 431.916 265.882 432.54 266.048C435.118 266.751 437.492 268.055 439.466 269.854C441.429 271.832 442.739 274.363 443.221 277.106C443.718 279.878 443.848 282.702 443.609 285.507C443.205 289.326 442.111 293.04 440.381 296.469C438.829 299.859 437.098 303.056 435.338 306.157C431.764 312.26 428.093 317.824 424.56 322.765L424.38 323L424.131 322.848L400.151 306.904L393.515 302.448L391.797 301.271C391.6 301.151 391.414 301.012 391.243 300.856L391.894 301.243L393.709 302.392L400.483 306.752L424.449 322.322L424.034 322.405C427.525 317.464 431.168 311.9 434.701 305.797C436.446 302.752 438.164 299.555 439.702 296.192C441.393 292.841 442.463 289.211 442.86 285.48C443.09 282.744 442.969 279.991 442.5 277.286C442.05 274.67 440.807 272.255 438.94 270.366C437.057 268.63 434.78 267.376 432.304 266.713C431.695 266.547 431.099 266.353 430.489 266.228C429.88 266.104 429.284 266.021 428.675 265.951H426.86L425.073 266.187C422.784 266.68 420.586 267.53 418.562 268.706C416.627 269.806 414.8 271.085 413.103 272.525C410.03 275.089 407.28 278.017 404.916 281.245L394.997 295.527C393.82 297.188 392.905 298.503 392.227 299.444L391.492 300.468C391.419 300.59 391.335 300.706 391.243 300.814Z" fill="#263238"/>
<path d="M292.025 360.022L285.514 362.499C284.628 363.247 263.515 383.647 263.515 383.647L260.343 398.11C260.865 398.48 261.497 398.665 262.138 398.635C262.778 398.605 263.39 398.362 263.875 397.944C265.233 396.941 266.151 395.454 266.438 393.792L268.419 387.425L273.961 381.502L269.403 390.594L267.186 401.666C267.48 402.116 267.899 402.471 268.39 402.687C268.882 402.903 269.427 402.972 269.957 402.884C271.536 402.483 272.021 399.936 272.021 399.936C272.021 399.936 273.531 401.999 275.124 401.32C276.717 400.642 281.926 392.698 281.926 392.698C281.926 392.698 284.96 385.986 284.932 386.401C284.905 386.816 283.048 392.767 283.048 392.767C283.048 392.767 278.892 399.411 279.737 400.393C279.985 400.716 280.301 400.979 280.663 401.166C281.024 401.353 281.423 401.457 281.829 401.473C282.245 401.473 287.648 393.612 288.659 392.338C289.67 391.065 297.456 377.723 297.456 377.723L299.963 369.793L292.025 360.022Z" fill="#FFBE9D"/>
<path d="M280.388 383.979C280.096 384.842 279.655 385.647 279.086 386.359C277.88 388.144 276.77 389.992 275.761 391.895C274.709 394.151 274.03 396.352 273.351 397.888C273.07 398.755 272.623 399.559 272.035 400.255C272.257 399.387 272.539 398.536 272.88 397.708C273.503 395.623 274.248 393.576 275.11 391.577C276.125 389.627 277.317 387.774 278.671 386.041C279.178 385.302 279.753 384.612 280.388 383.979Z" fill="#EB996E"/>
<path d="M231.902 448.972L159.297 490.865C157.971 491.63 156.508 492.126 154.991 492.326C153.474 492.525 151.932 492.424 150.454 492.028C148.976 491.632 147.59 490.95 146.376 490.019C145.162 489.088 144.144 487.927 143.379 486.603C142.612 485.279 142.114 483.817 141.913 482.301C141.712 480.785 141.813 479.244 142.209 477.767C142.606 476.29 143.29 474.905 144.223 473.693C145.156 472.48 146.319 471.463 147.646 470.7L220.251 428.807C222.929 427.266 226.108 426.85 229.092 427.649C232.077 428.449 234.621 430.398 236.169 433.069C236.936 434.393 237.434 435.855 237.635 437.371C237.835 438.887 237.735 440.428 237.338 441.905C236.942 443.382 236.258 444.767 235.325 445.98C234.392 447.192 233.229 448.209 231.902 448.972Z" fill="#455A64"/>
<path d="M231.902 448.972C231.902 448.972 232.636 448.543 233.827 447.491C235.547 445.905 236.753 443.843 237.291 441.567C237.653 439.935 237.653 438.244 237.291 436.612C236.861 434.523 235.855 432.595 234.386 431.047C232.918 429.499 231.044 428.392 228.979 427.852C226.5 427.222 223.882 427.436 221.54 428.461L147.826 471.005C146.095 472.008 144.661 473.45 143.668 475.186C142.676 476.921 142.16 478.888 142.174 480.887C142.197 482.828 142.718 484.73 143.689 486.412C144.659 488.094 146.045 489.499 147.715 490.492C149.328 491.443 151.152 491.979 153.024 492.051C154.895 492.124 156.756 491.73 158.438 490.907C161.707 489.121 164.907 487.212 168.038 485.44L201.286 466.382L223.645 453.608L229.755 450.162L231.348 449.276L231.902 448.999L231.389 449.345L229.824 450.286L223.784 453.857L201.48 466.839L168.37 486.035C165.226 487.834 162.095 489.717 158.742 491.571C156.956 492.445 154.98 492.862 152.993 492.785C151.005 492.708 149.068 492.138 147.355 491.128C145.591 490.077 144.123 488.596 143.088 486.824C142.054 485.019 141.496 482.98 141.467 480.9C141.451 478.777 141.997 476.686 143.051 474.841C144.104 472.996 145.627 471.463 147.466 470.396L188.07 447.006L205.816 436.806L213.851 432.198L217.647 430.025C218.894 429.333 220.057 428.641 221.332 428.004C222.954 427.301 224.714 426.969 226.481 427.034C228.249 427.099 229.979 427.558 231.545 428.379C233.112 429.199 234.475 430.359 235.534 431.775C236.592 433.19 237.321 434.824 237.665 436.557C238.067 438.568 237.932 440.65 237.276 442.593C236.62 444.536 235.464 446.272 233.924 447.629C233.465 448.034 232.969 448.395 232.442 448.709C232.268 448.809 232.088 448.897 231.902 448.972Z" fill="#263238"/>
<path d="M462.158 203.602C454.22 211.906 450.563 223.366 448.513 234.659C447.723 239.033 447.127 243.628 448.513 247.849C449.898 252.07 453.791 255.779 458.21 255.558C462.629 255.336 466.176 251.281 468.794 247.503C480.001 231.268 487.15 215.532 493.162 196.751L493.425 196.239C483.201 191.105 470.027 195.298 462.158 203.602Z" fill="#455A64"/>
<path d="M508.816 174.815C507.954 174.399 507.018 174.158 506.062 174.106C505.105 174.054 504.149 174.193 503.246 174.513C502.344 174.834 501.515 175.33 500.806 175.974C500.098 176.617 499.524 177.395 499.119 178.261L387.863 417.223C386.735 419.565 384.964 421.54 382.757 422.917C380.55 424.294 377.997 425.016 375.395 425.001C347.092 424.876 258.362 424.475 240.588 424.226C239.049 424.208 237.53 424.575 236.169 425.291C233.379 427.06 231.349 429.803 230.475 432.986C229.616 436.146 229.15 439.4 229.09 442.674C228.674 450.162 228.258 457.968 227.843 465.704C227.75 467.542 228.034 469.379 228.677 471.103C229.32 472.828 230.309 474.403 231.583 475.732C232.856 477.061 234.388 478.117 236.084 478.834C237.78 479.552 239.605 479.916 241.447 479.904H285.957C282.369 479.904 369.618 481.551 406.038 482.229C410.646 482.317 415.175 481.021 419.038 478.509C422.9 475.997 425.92 472.385 427.705 468.14L546.913 201.305C547.671 199.598 547.74 197.664 547.105 195.908C546.47 194.151 545.18 192.708 543.505 191.88L508.816 174.815Z" fill="#455A64"/>
<path d="M508.816 174.815L511.074 175.895L517.682 179.105L543.131 191.561C544.623 192.193 545.875 193.284 546.705 194.675C547.573 196.152 547.901 197.884 547.633 199.575C547.476 200.44 547.196 201.279 546.802 202.066L545.721 204.488C544.987 206.121 544.253 207.796 543.491 209.512L533.572 231.78L509.287 286.144C491.278 326.474 469.833 374.582 445.922 428.17L427.511 469.372C425.795 472.932 423.204 475.999 419.979 478.286C416.754 480.573 413.002 482.006 409.072 482.451C407.095 482.609 405.11 482.637 403.129 482.534L397.186 482.423L385.217 482.201L336.204 481.288L311.129 480.804L298.467 480.555L292.094 480.43L288.908 480.361H287.301H285.916C285.777 480.513 285.833 478.977 285.916 479.627L286.027 480.347H241.447C239.183 480.329 236.956 479.774 234.949 478.728C232.956 477.674 231.25 476.15 229.98 474.288C228.711 472.426 227.915 470.282 227.663 468.043C227.555 465.856 227.602 463.664 227.801 461.483C227.912 459.31 228.037 457.151 228.147 454.992C228.378 450.674 228.614 446.374 228.854 442.093C229.09 437.844 229.45 433.36 231.625 429.54C232.697 427.613 234.285 426.023 236.21 424.945C237.199 424.447 238.268 424.129 239.369 424.004C240.477 423.88 241.516 424.004 242.583 424.004L255.203 424.087L351.816 424.669L374.619 424.807C376.443 424.908 378.27 424.64 379.988 424.019C381.707 423.398 383.282 422.438 384.621 421.195C387.392 418.759 388.403 415.077 390.051 411.839L407.964 373.336L440.117 304.344C459.789 262.118 475.707 228.016 486.651 204.405C489.421 198.523 491.846 193.333 493.979 188.738L496.916 182.469L498.191 179.701C498.551 178.869 498.963 178.06 499.423 177.279C500.272 176.006 501.505 175.036 502.942 174.511C503.97 174.118 505.075 173.971 506.17 174.082C506.835 174.138 507.489 174.292 508.109 174.538L508.719 174.815C507.912 174.453 507.051 174.229 506.17 174.151C505.082 174.058 503.988 174.215 502.97 174.607C501.564 175.144 500.366 176.114 499.548 177.375C499.094 178.156 498.692 178.965 498.343 179.797L497.068 182.565L494.173 188.863C492.067 193.402 489.629 198.648 486.9 204.557L440.519 304.537C430.711 325.63 419.975 348.742 408.449 373.557C402.686 385.977 396.729 398.797 390.578 412.019C389.816 413.666 389.04 415.327 388.278 416.987C387.504 418.709 386.398 420.261 385.023 421.555C383.626 422.857 381.982 423.865 380.188 424.519C378.393 425.173 376.485 425.459 374.577 425.361L351.775 425.236L255.148 424.696H242.527C241.474 424.696 240.394 424.627 239.396 424.696C238.384 424.821 237.401 425.116 236.487 425.568C234.688 426.584 233.206 428.079 232.207 429.886C230.087 433.526 229.713 437.872 229.436 442.121C229.159 446.37 228.979 450.702 228.743 455.02C228.632 457.179 228.508 459.338 228.397 461.497C228.209 463.641 228.158 465.795 228.244 467.946C228.489 470.07 229.247 472.102 230.454 473.867C231.661 475.632 233.28 477.077 235.171 478.077C237.073 479.075 239.187 479.602 241.336 479.613H285.847V480.333C285.736 480.914 285.75 479.406 285.847 479.627H287.232H288.825L292.011 479.696L298.384 479.821L311.046 480.07L336.12 480.555L385.064 481.496L397.033 481.717L402.977 481.828C404.929 481.932 406.887 481.904 408.837 481.745C412.674 481.332 416.343 479.947 419.494 477.721C422.646 475.496 425.176 472.502 426.846 469.026C433.135 454.983 439.277 441.263 445.271 427.866L508.816 285.895C517.835 265.758 525.98 247.544 533.142 231.573C536.717 223.592 540.041 216.178 543.117 209.332L545.361 204.322C545.721 203.505 546.081 202.689 546.442 201.9C546.829 201.141 547.104 200.33 547.259 199.492C547.524 197.865 547.216 196.197 546.386 194.772C545.587 193.429 544.378 192.377 542.937 191.769L517.557 179.23L510.977 175.95C509.523 175.216 508.816 174.815 508.816 174.815Z" fill="#263238"/>
<path d="M525.551 183.064C525.551 183.064 525.399 183.437 525.08 184.171C524.761 184.904 524.249 186.012 523.611 187.423C522.309 190.274 520.384 194.468 517.932 199.879L496.902 245.551C479.073 284.123 454.456 337.394 427.275 396.227L413.976 424.959L402.894 452.888L402.81 453.11H402.575L278.491 452.985L242.403 452.874H232.705H230.212H229.367C229.367 452.874 229.658 452.874 230.212 452.874H232.705H242.403L278.491 452.778L402.575 452.653L402.242 452.874C405.83 443.851 409.557 434.509 413.325 424.918L426.624 396.172L496.445 245.579C505.408 226.327 512.667 210.757 517.682 199.907L523.487 187.52L525.025 184.309C525.357 183.423 525.551 183.064 525.551 183.064Z" fill="#263238"/>
<g opacity="0.3">
<path opacity="0.3" d="M400.054 391.01C400.054 391.01 428.73 387.107 432.997 392.103C437.264 397.099 448.887 420.697 448.887 420.697L455.813 408.365L447.307 381.502L425.959 379.149H405.567L400.054 391.01Z" fill="black"/>
</g>
<g opacity="0.3">
<path opacity="0.3" d="M299.949 424.336L285.93 479.918H278.962L291.97 424.336H299.949Z" fill="black"/>
</g>
<path d="M500.172 177.223C500.352 177.306 493.868 191.478 485.709 208.875C477.549 226.272 470.761 240.306 470.581 240.223C470.401 240.14 476.954 225.968 485.044 208.64C493.134 191.312 499.992 177.14 500.172 177.223Z" fill="#263238"/>
<path d="M456.451 391.633C453.098 381.557 443.276 374.692 432.013 374.54C425.959 374.471 418.659 374.346 410.915 374.222C380.825 373.737 343.38 373.128 326.132 374.07C309.508 374.983 299.617 382.374 294.27 388.422C290.783 392.265 288.17 396.817 286.609 401.763V401.985C274.141 457.871 249.066 566.847 248.193 570.224L260.661 570.39C261.631 566.819 293.826 421.693 297.691 404.31C298.176 402.718 303.828 385.93 326.783 384.671C343.587 383.744 380.811 384.353 410.707 384.837C418.451 384.975 425.765 385.086 431.847 385.169C434.858 385.146 437.801 386.06 440.268 387.784C442.736 389.507 444.605 391.955 445.617 394.788L503.801 570.196H516.269L456.451 391.633Z" fill="#455A64"/>
<path d="M456.451 391.632C456.451 391.632 456.838 392.684 457.545 394.774C458.251 396.864 459.304 399.964 460.69 404.019L472.673 439.56L516.56 570.113L516.671 570.473H503.552V570.279C488.978 526.406 472.216 475.877 453.929 420.807L447.003 399.923L445.229 394.65C444.636 392.938 443.693 391.368 442.459 390.041C439.877 387.371 436.375 385.783 432.664 385.598L386.588 384.879C370.975 384.685 355.127 384.477 339.085 384.712C335.068 384.782 331.05 384.865 327.019 385.086C323.009 385.304 319.052 386.101 315.271 387.453C311.445 388.801 307.949 390.945 305.013 393.744C302.078 396.542 299.772 399.931 298.245 403.687C298.148 403.926 298.065 404.171 297.996 404.421C285.002 462.701 272.492 518.781 260.952 570.501V570.764H260.675L248.207 570.597H247.792L247.889 570.182L280.361 428.198C281.58 422.865 282.785 417.61 283.977 412.434C284.577 409.841 285.163 407.272 285.736 404.725C286.054 403.452 286.248 402.179 286.678 400.919C287.098 399.686 287.593 398.48 288.16 397.307C290.384 392.713 293.469 388.588 297.248 385.155C300.912 381.854 305.133 379.23 309.716 377.405C314.103 375.66 318.716 374.546 323.417 374.097C328.03 373.682 332.532 373.627 336.938 373.516C345.762 373.364 354.185 373.391 362.192 373.433C378.207 373.544 392.573 373.793 405.138 374.014L422.551 374.305L430.198 374.429C432.52 374.391 434.84 374.581 437.125 374.997C439.15 375.381 441.121 376.003 442.999 376.851C444.648 377.589 446.217 378.493 447.681 379.55C450.777 381.786 453.318 384.703 455.107 388.076C455.467 388.851 455.799 389.46 456.007 390.027C456.409 391.12 456.603 391.674 456.603 391.674L455.952 390.055C455.744 389.515 455.398 388.892 455.037 388.117C454.559 387.249 454.032 386.408 453.458 385.598C451.849 383.311 449.863 381.313 447.584 379.689C446.123 378.645 444.559 377.755 442.916 377.031C441.051 376.197 439.093 375.589 437.083 375.218C434.826 374.814 432.533 374.633 430.24 374.678L422.593 374.582L405.179 374.332C392.642 374.153 378.276 373.931 362.234 373.848C354.227 373.848 345.804 373.848 336.993 373.986C332.588 374.083 328.072 374.166 323.514 374.568C318.861 375.029 314.296 376.137 309.952 377.862C305.443 379.679 301.292 382.28 297.691 385.543C293.963 388.928 290.921 392.997 288.728 397.528C288.198 398.686 287.736 399.874 287.343 401.085C286.955 402.275 286.733 403.59 286.429 404.85C285.847 407.396 285.26 409.966 284.669 412.559C283.496 417.735 282.3 422.994 281.081 428.336C271.384 471.06 260.44 518.85 248.692 570.348L248.373 569.919L260.841 570.085L260.509 570.335C272.021 518.628 284.517 462.549 297.497 404.255C297.581 404.005 297.664 403.742 297.761 403.493C299.274 399.654 301.579 396.176 304.527 393.286C307.475 390.396 310.999 388.158 314.869 386.719C318.728 385.35 322.764 384.539 326.853 384.311C330.884 384.09 334.915 384.007 338.933 383.937C354.989 383.716 370.795 383.937 386.463 384.117L432.567 384.851C436.455 385.04 440.123 386.709 442.819 389.515C444.147 390.901 445.167 392.552 445.811 394.359C446.407 396.13 447.003 397.888 447.584 399.646C449.912 406.677 452.221 413.638 454.511 420.53L504.023 570.113L503.76 569.919H516.228L515.978 570.265C497.567 515.196 482.647 470.534 472.313 439.643C467.173 424.198 463.183 412.199 460.468 404.061L457.406 394.788C456.783 392.712 456.451 391.632 456.451 391.632Z" fill="#263238"/>
</svg>
