<svg width="30" height="40" viewBox="0 0 30 40" fill="none" xmlns="http://www.w3.org/2000/svg">
<path d="M26.931 3.53176C25.8486 2.5777 24.9153 1.752 24.9153 0.50305C24.9098 0.227587 24.6877 0.00555089 24.4123 0C23.6803 0 19.3853 4.6003 19.3853 7.71921C19.3842 10.5032 21.6402 12.761 24.4243 12.762C27.2083 12.7631 29.466 10.5071 29.4671 7.72303C29.4671 7.72173 29.4671 7.72043 29.4671 7.71921C29.4671 5.7764 28.121 4.58296 26.931 3.53176Z" fill="white"/>
<path d="M20.3013 15.6015C17.231 12.8885 14.3133 10.3282 14.3133 6.41827C14.3171 6.13092 14.0873 5.89475 13.7999 5.89093C13.7952 5.89085 13.7906 5.89085 13.786 5.89093C12.5717 5.89093 0.533203 18.2243 0.533203 26.7068C0.531902 34.0472 6.48142 39.9988 13.8218 40.0001C21.1621 40.0014 27.1137 34.0518 27.115 26.7115C27.115 26.7099 27.115 26.7083 27.115 26.7068C27.1289 21.6277 23.6596 18.5643 20.3013 15.6015ZM13.838 36.1745C13.5669 36.1745 13.3471 35.9548 13.3471 35.6836C13.3471 35.4125 13.5669 35.1927 13.838 35.1927C18.1059 35.1889 21.5654 31.731 21.5711 27.4631C21.5711 27.192 21.7909 26.9722 22.062 26.9722C22.3331 26.9722 22.5529 27.192 22.5529 27.4631C22.5472 32.2733 18.6482 36.1707 13.838 36.1745Z" fill="white"/>
</svg>
