<svg width="174" height="172" viewBox="0 0 174 172" fill="none" xmlns="http://www.w3.org/2000/svg">
<circle cx="80" cy="80" r="80" fill="#C4C4C4"/>
<path fill-rule="evenodd" clip-rule="evenodd" d="M79.4958 111.402C67.4973 111.402 57.251 109.535 57.251 102.057C57.251 94.5795 67.4323 87.6767 79.4958 87.6767C91.4942 87.6767 101.741 94.5126 101.741 101.99C101.741 109.465 91.5592 111.402 79.4958 111.402Z" stroke="#323131" stroke-width="1.5" stroke-linecap="round" stroke-linejoin="round"/>
<path fill-rule="evenodd" clip-rule="evenodd" d="M79.4727 77.3148C87.3465 77.3148 93.7284 70.933 93.7284 63.0591C93.7284 55.1852 87.3465 48.8005 79.4727 48.8005C71.5988 48.8005 65.214 55.1852 65.214 63.0591C65.1874 70.9064 71.5249 77.2882 79.3722 77.3148C79.4077 77.3148 79.4402 77.3148 79.4727 77.3148Z" stroke="#323131" stroke-width="1.5" stroke-linecap="round" stroke-linejoin="round"/>
<circle cx="138" cy="136" r="36" fill="white"/>
<path fill-rule="evenodd" clip-rule="evenodd" d="M144.877 136.996C144.877 133.523 142.06 130.706 138.586 130.706C135.113 130.706 132.296 133.523 132.296 136.996C132.296 140.47 135.113 143.287 138.586 143.287C142.06 143.287 144.877 140.47 144.877 136.996Z" stroke="black" stroke-width="1.5" stroke-linecap="round" stroke-linejoin="round"/>
<path fill-rule="evenodd" clip-rule="evenodd" d="M138.585 152.4C154.676 152.4 156.592 147.579 156.592 137.133C156.592 129.811 155.623 125.893 149.524 124.209C148.964 124.032 148.343 123.695 147.84 123.141C147.028 122.251 146.434 119.516 144.472 118.689C142.51 117.863 134.63 117.901 132.699 118.689C130.771 119.478 130.143 122.251 129.331 123.141C128.828 123.695 128.209 124.032 127.646 124.209C121.548 125.893 120.579 129.811 120.579 137.133C120.579 147.579 122.495 152.4 138.585 152.4Z" stroke="black" stroke-width="1.5" stroke-linecap="round" stroke-linejoin="round"/>
<path d="M148.409 130H148.427" stroke="black" stroke-width="1.5" stroke-linecap="round" stroke-linejoin="round"/>
</svg>
