<svg width="102" height="102" viewBox="0 0 102 102" fill="none" xmlns="http://www.w3.org/2000/svg">
<g clip-path="url(#clip0)">
<path d="M68.5471 13.7799C66.9552 12.3767 65.5826 11.1624 65.5826 9.32554C65.5745 8.92041 65.2479 8.59386 64.8428 8.58569C63.7662 8.58569 57.4495 15.3514 57.4495 19.9384C57.4479 24.033 60.7659 27.3535 64.8604 27.355C68.9549 27.3565 72.2754 24.0386 72.2769 19.9441C72.2769 19.9421 72.2769 19.9402 72.2769 19.9384C72.2769 17.0811 70.2972 15.3259 68.5471 13.7799Z" fill="#ED394A"/>
<path d="M58.7964 31.531C54.2808 27.5409 49.9897 23.7754 49.9897 18.025C49.9953 17.6024 49.6573 17.2551 49.2347 17.2495C49.2278 17.2494 49.2211 17.2494 49.2142 17.2495C47.4283 17.2495 29.7231 35.3884 29.7231 47.8637C29.7212 58.6592 38.4713 67.4123 49.2668 67.4142C60.0624 67.4162 68.8155 58.6661 68.8174 47.8705C68.8174 47.8682 68.8174 47.866 68.8174 47.8637C68.8378 40.3938 63.7355 35.8884 58.7964 31.531ZM49.2907 61.788C48.892 61.788 48.5687 61.4648 48.5687 61.066C48.5687 60.6673 48.892 60.344 49.2907 60.344C55.5676 60.3384 60.6554 55.2529 60.6639 48.976C60.6639 48.5772 60.9871 48.254 61.3858 48.254C61.7846 48.254 62.1078 48.5772 62.1078 48.976C62.0994 56.0504 56.3651 61.7824 49.2907 61.788Z" fill="#ED394A"/>
</g>
<path d="M17.3747 80.2554C17.1858 79.9074 16.9124 79.644 16.5545 79.465C16.2065 79.2761 15.7938 79.1816 15.3166 79.1816C14.4913 79.1816 13.8301 79.455 13.333 80.0019C12.8358 80.5388 12.5873 81.2597 12.5873 82.1645C12.5873 83.1289 12.8458 83.8846 13.3628 84.4314C13.8898 84.9684 14.6106 85.2368 15.5254 85.2368C16.1518 85.2368 16.6787 85.0777 17.1063 84.7596C17.5438 84.4414 17.8619 83.984 18.0608 83.3874H14.8244V81.5082H20.3725V83.8796C20.1836 84.516 19.8605 85.1076 19.4031 85.6544C18.9557 86.2013 18.3839 86.6437 17.6879 86.9818C16.9919 87.3198 16.2065 87.4889 15.3315 87.4889C14.2974 87.4889 13.3727 87.2652 12.5574 86.8177C11.7521 86.3604 11.1207 85.729 10.6633 84.9236C10.2159 84.1182 9.99217 83.1985 9.99217 82.1645C9.99217 81.1304 10.2159 80.2107 10.6633 79.4053C11.1207 78.59 11.7521 77.9586 12.5574 77.5112C13.3628 77.0538 14.2825 76.8252 15.3166 76.8252C16.5694 76.8252 17.6233 77.1284 18.4784 77.7349C19.3434 78.3414 19.9151 79.1816 20.1935 80.2554H17.3747ZM24.3355 78.9877V81.1056H27.7509V83.0742H24.3355V85.371H28.1983V87.4143H21.7852V76.9445H28.1983V78.9877H24.3355ZM37.3858 76.9445V78.9877H34.6117V87.4143H32.0614V78.9877H29.2873V76.9445H37.3858ZM48.1648 82.0452C48.7713 82.1744 49.2585 82.4777 49.6264 82.9549C49.9943 83.4222 50.1783 83.9592 50.1783 84.5657C50.1783 85.4406 49.87 86.1366 49.2536 86.6537C48.6471 87.1608 47.7969 87.4143 46.7032 87.4143H41.8263V76.9445H46.5392C47.6031 76.9445 48.4333 77.1881 49.0299 77.6753C49.6364 78.1625 49.9396 78.8237 49.9396 79.6589C49.9396 80.2753 49.7756 80.7874 49.4475 81.195C49.1293 81.6027 48.7017 81.8861 48.1648 82.0452ZM44.3766 81.1801H46.047C46.4646 81.1801 46.7828 81.0906 47.0015 80.9117C47.2302 80.7228 47.3445 80.4493 47.3445 80.0914C47.3445 79.7334 47.2302 79.46 47.0015 79.2711C46.7828 79.0822 46.4646 78.9877 46.047 78.9877H44.3766V81.1801ZM46.2558 85.3561C46.6833 85.3561 47.0115 85.2617 47.2401 85.0728C47.4788 84.8739 47.5981 84.5905 47.5981 84.2226C47.5981 83.8548 47.4738 83.5664 47.2252 83.3576C46.9866 83.1488 46.6535 83.0444 46.226 83.0444H44.3766V85.3561H46.2558ZM54.2078 85.4456H57.5486V87.4143H51.6574V76.9445H54.2078V85.4456ZM63.7166 87.5187C62.7322 87.5187 61.8274 87.29 61.0022 86.8326C60.1869 86.3753 59.5356 85.7389 59.0484 84.9236C58.5712 84.0984 58.3325 83.1737 58.3325 82.1496C58.3325 81.1254 58.5712 80.2057 59.0484 79.3904C59.5356 78.5751 60.1869 77.9388 61.0022 77.4814C61.8274 77.024 62.7322 76.7953 63.7166 76.7953C64.7009 76.7953 65.6008 77.024 66.4161 77.4814C67.2413 77.9388 67.8876 78.5751 68.3549 79.3904C68.8322 80.2057 69.0708 81.1254 69.0708 82.1496C69.0708 83.1737 68.8322 84.0984 68.3549 84.9236C67.8777 85.7389 67.2314 86.3753 66.4161 86.8326C65.6008 87.29 64.7009 87.5187 63.7166 87.5187ZM63.7166 85.1921C64.5518 85.1921 65.218 84.9137 65.7151 84.3569C66.2222 83.8001 66.4757 83.0643 66.4757 82.1496C66.4757 81.2249 66.2222 80.4891 65.7151 79.9422C65.218 79.3854 64.5518 79.107 63.7166 79.107C62.8714 79.107 62.1953 79.3805 61.6882 79.9273C61.1911 80.4742 60.9425 81.2149 60.9425 82.1496C60.9425 83.0742 61.1911 83.815 61.6882 84.3718C62.1953 84.9186 62.8714 85.1921 63.7166 85.1921ZM75.4412 87.5187C74.4569 87.5187 73.5521 87.29 72.7268 86.8326C71.9115 86.3753 71.2602 85.7389 70.773 84.9236C70.2958 84.0984 70.0571 83.1737 70.0571 82.1496C70.0571 81.1254 70.2958 80.2057 70.773 79.3904C71.2602 78.5751 71.9115 77.9388 72.7268 77.4814C73.5521 77.024 74.4569 76.7953 75.4412 76.7953C76.4255 76.7953 77.3254 77.024 78.1407 77.4814C78.9659 77.9388 79.6122 78.5751 80.0795 79.3904C80.5568 80.2057 80.7954 81.1254 80.7954 82.1496C80.7954 83.1737 80.5568 84.0984 80.0795 84.9236C79.6023 85.7389 78.956 86.3753 78.1407 86.8326C77.3254 87.29 76.4255 87.5187 75.4412 87.5187ZM75.4412 85.1921C76.2764 85.1921 76.9426 84.9137 77.4397 84.3569C77.9468 83.8001 78.2003 83.0643 78.2003 82.1496C78.2003 81.2249 77.9468 80.4891 77.4397 79.9422C76.9426 79.3854 76.2764 79.107 75.4412 79.107C74.5961 79.107 73.9199 79.3805 73.4129 79.9273C72.9157 80.4742 72.6671 81.2149 72.6671 82.1496C72.6671 83.0742 72.9157 83.815 73.4129 84.3718C73.9199 84.9186 74.5961 85.1921 75.4412 85.1921ZM86.1367 76.9445C87.2404 76.9445 88.2048 77.1632 89.0301 77.6007C89.8553 78.0382 90.4917 78.6546 90.9391 79.4501C91.3965 80.2356 91.6252 81.1453 91.6252 82.1794C91.6252 83.2035 91.3965 84.1133 90.9391 84.9087C90.4917 85.7041 89.8504 86.3206 89.0152 86.7581C88.1899 87.1956 87.2304 87.4143 86.1367 87.4143H82.2143V76.9445H86.1367ZM85.9727 85.207C86.9371 85.207 87.6878 84.9435 88.2247 84.4165C88.7616 83.8896 89.0301 83.1438 89.0301 82.1794C89.0301 81.2149 88.7616 80.4642 88.2247 79.9273C87.6878 79.3904 86.9371 79.122 85.9727 79.122H84.7646V85.207H85.9727Z" fill="#141414"/>
<defs>
<clipPath id="clip0">
<rect width="58.8286" height="58.8286" fill="white" transform="translate(21.5857 8.58569)"/>
</clipPath>
</defs>
</svg>
