<svg width="50" height="50" viewBox="0 0 50 50" fill="none" xmlns="http://www.w3.org/2000/svg">
<circle cx="25" cy="25" r="24.5" stroke="#323131"/>
<path fill-rule="evenodd" clip-rule="evenodd" d="M24.3383 35.5646C20.4926 35.5646 17.2086 34.9662 17.2086 32.5695C17.2086 30.1729 20.4718 27.9604 24.3383 27.9604C28.1839 27.9604 31.468 30.1514 31.468 32.5481C31.468 34.9438 28.2048 35.5646 24.3383 35.5646Z" stroke="#323131" stroke-width="1.5" stroke-linecap="round" stroke-linejoin="round"/>
<path fill-rule="evenodd" clip-rule="evenodd" d="M24.3307 24.6393C26.8544 24.6393 28.8999 22.5939 28.8999 20.0702C28.8999 17.5465 26.8544 15.5001 24.3307 15.5001C21.807 15.5001 19.7606 17.5465 19.7606 20.0702C19.7521 22.5854 21.7834 24.6308 24.2985 24.6393C24.3099 24.6393 24.3203 24.6393 24.3307 24.6393Z" stroke="#323131" stroke-width="1.5" stroke-linecap="round" stroke-linejoin="round"/>
</svg>
