<svg width="50" height="50" viewBox="0 0 50 50" fill="none" xmlns="http://www.w3.org/2000/svg">
<circle cx="25" cy="25" r="24.5" stroke="#323131"/>
<path fill-rule="evenodd" clip-rule="evenodd" d="M24.3387 35.5646C20.4931 35.5646 17.209 34.9662 17.209 32.5695C17.209 30.1729 20.4722 27.9604 24.3387 27.9604C28.1844 27.9604 31.4685 30.1514 31.4685 32.5481C31.4685 34.9438 28.2052 35.5646 24.3387 35.5646Z" stroke="#323131" stroke-width="1.5" stroke-linecap="round" stroke-linejoin="round"/>
<path fill-rule="evenodd" clip-rule="evenodd" d="M24.3309 24.6393C26.8545 24.6393 28.9 22.5939 28.9 20.0702C28.9 17.5465 26.8545 15.5001 24.3309 15.5001C21.8072 15.5001 19.7608 17.5465 19.7608 20.0702C19.7523 22.5854 21.7835 24.6308 24.2987 24.6393C24.31 24.6393 24.3205 24.6393 24.3309 24.6393Z" stroke="#323131" stroke-width="1.5" stroke-linecap="round" stroke-linejoin="round"/>
</svg>
