<svg width="28" height="35" viewBox="0 0 28 35" fill="none" xmlns="http://www.w3.org/2000/svg">
<path d="M20.3013 10.6015C17.231 7.88853 14.3133 5.32818 14.3133 1.41827C14.3171 1.13092 14.0873 0.89475 13.7999 0.890934C13.7952 0.890847 13.7906 0.890847 13.786 0.890934C12.5717 0.890934 0.533203 13.2243 0.533203 21.7068C0.531902 29.0472 6.48142 34.9988 13.8218 35.0001C21.1621 35.0014 27.1137 29.0518 27.115 21.7115C27.115 21.7099 27.115 21.7083 27.115 21.7068C27.1289 16.6277 23.6596 13.5643 20.3013 10.6015ZM13.838 31.1745C13.5669 31.1745 13.3471 30.9548 13.3471 30.6836C13.3471 30.4125 13.5669 30.1927 13.838 30.1927C18.1059 30.1889 21.5654 26.731 21.5711 22.4631C21.5711 22.192 21.7909 21.9722 22.062 21.9722C22.3331 21.9722 22.5529 22.192 22.5529 22.4631C22.5472 27.2733 18.6482 31.1707 13.838 31.1745Z" fill="white"/>
</svg>
